if (_typeface_js && _typeface_js.loadFace) _typeface_js.loadFace({"glyphs":{"S":{"x_min":38.65625,"x_max":638.890625,"ha":695,"o":"m 529 641 q 514 645 518 642 q 507 654 510 649 q 503 666 505 659 q 498 678 502 672 q 434 736 475 713 q 336 759 392 759 q 291 751 311 759 q 258 730 271 744 q 236 700 244 717 q 229 663 229 682 q 237 621 229 641 q 265 582 244 601 q 321 543 286 562 q 412 501 357 523 q 521 445 478 474 q 591 384 565 417 q 628 316 617 352 q 638 238 638 280 q 622 142 638 189 q 568 57 605 94 q 473 -2 531 21 q 331 -25 415 -25 q 170 8 243 -25 q 38 105 98 42 l 118 244 q 130 238 126 242 q 138 228 134 233 q 145 216 141 223 q 153 201 148 209 q 186 166 168 183 q 229 137 205 149 q 281 116 252 124 q 344 108 309 108 q 444 138 408 108 q 480 230 480 167 q 472 268 480 250 q 445 303 464 286 q 393 338 425 320 q 311 376 360 356 q 200 432 246 402 q 124 494 153 461 q 81 564 94 527 q 67 644 67 602 q 88 739 67 695 q 147 816 109 783 q 237 868 185 849 q 351 887 288 887 q 499 854 430 887 q 616 758 568 821 l 529 641 "},"¦":{"x_min":273.328125,"x_max":422.53125,"ha":695,"o":"m 273 905 l 422 905 l 422 377 l 273 377 l 273 905 m 422 -209 l 273 -209 l 273 302 l 422 302 l 422 -209 "},"/":{"x_min":71.890625,"x_max":623.96875,"ha":695,"o":"m 71 -6 l 502 926 l 623 864 l 194 -65 l 71 -6 "},"y":{"x_min":15.59375,"x_max":658.546875,"ha":695,"o":"m 400 -70 q 359 -150 382 -117 q 309 -204 336 -183 q 251 -235 282 -225 q 187 -245 220 -245 q 15 -172 91 -245 l 92 -38 q 104 -47 101 -42 q 109 -58 107 -52 q 113 -71 111 -64 q 120 -86 115 -78 q 144 -111 130 -103 q 179 -119 158 -119 q 207 -113 193 -119 q 234 -92 221 -107 q 260 -52 247 -77 q 286 8 273 -28 l 42 648 l 233 648 q 231 635 233 640 q 228 626 230 630 q 225 616 226 621 q 223 604 223 611 l 368 201 l 430 372 q 455 443 443 406 q 477 516 467 480 q 495 585 487 552 q 510 648 503 619 l 658 648 q 616 503 641 578 q 560 351 591 428 l 400 -70 "},"Á":{"x_min":0,"x_max":695.859375,"ha":695,"o":"m 0 0 l 0 0 m 0 0 l 288 880 l 379 880 l 695 0 l 533 0 l 454 223 l 227 223 l 160 0 l 0 0 m 426 331 l 336 619 l 251 331 l 426 331 m 496 995 l 245 908 l 208 976 l 420 1133 l 496 995 "},"g":{"x_min":44.765625,"x_max":677.546875,"ha":695,"o":"m 322 548 q 283 541 301 548 q 251 519 265 533 q 230 485 238 505 q 222 440 222 465 q 229 399 222 418 q 249 366 236 380 q 280 343 262 352 q 322 335 299 335 q 364 343 345 335 q 397 366 383 352 q 417 399 410 380 q 423 440 423 418 q 417 481 423 461 q 397 516 410 501 q 364 539 383 531 q 322 548 345 548 m 324 668 q 469 622 409 668 q 535 653 499 642 q 612 663 570 663 l 657 663 l 677 531 q 652 535 664 533 q 629 537 639 536 q 613 539 619 539 q 605 540 606 540 q 545 529 576 540 q 561 484 555 507 q 568 438 568 461 q 549 351 568 392 q 496 280 529 311 q 418 232 463 250 q 323 215 374 215 q 295 216 309 215 q 266 222 281 217 q 236 197 247 209 q 225 169 225 185 q 244 144 225 150 q 295 137 264 137 q 345 139 319 137 q 392 141 370 141 q 508 128 460 141 q 585 92 556 115 q 628 37 615 69 q 641 -33 641 5 q 622 -110 641 -73 q 566 -176 604 -147 q 473 -222 529 -205 q 341 -240 417 -240 q 206 -226 263 -240 q 114 -190 150 -213 q 61 -138 78 -168 q 44 -73 44 -107 q 50 -39 44 -56 q 68 -4 56 -21 q 94 27 79 12 q 128 54 110 42 q 96 94 105 71 q 87 141 87 118 q 109 207 87 174 q 166 269 132 240 q 129 301 145 282 q 101 341 113 320 q 84 387 90 363 q 78 434 78 411 q 98 526 78 483 q 153 600 119 569 q 232 650 188 632 q 324 668 277 668 m 417 13 q 324 14 367 13 q 236 18 282 14 q 199 -16 210 3 q 187 -54 187 -36 q 199 -87 187 -73 q 233 -108 212 -100 q 284 -121 255 -117 q 344 -124 312 -124 q 405 -119 377 -124 q 453 -102 433 -113 q 485 -77 474 -92 q 498 -44 497 -63 q 478 -2 496 -18 q 417 13 459 13 "},"²":{"x_min":130.890625,"x_max":571.0625,"ha":695,"o":"m 130 766 q 229 869 169 832 q 365 906 288 906 q 438 894 403 906 q 501 858 474 881 q 544 804 528 836 q 560 734 560 772 q 553 685 560 706 q 528 641 546 663 q 480 595 510 619 q 404 536 450 570 q 381 519 389 524 q 368 510 374 514 q 358 501 363 506 q 341 484 352 496 l 522 484 q 534 489 529 485 q 544 495 539 492 q 555 501 549 498 q 571 503 561 503 l 571 365 l 149 365 l 149 453 q 229 545 186 502 q 330 630 273 588 l 366 658 q 406 700 394 679 q 419 737 419 720 q 402 774 419 758 q 359 790 385 790 q 299 774 326 790 q 258 729 271 759 q 252 711 254 719 q 242 693 250 702 l 130 766 "},"ë":{"x_min":51.546875,"x_max":634.8125,"ha":695,"o":"m 51 0 l 51 0 m 358 662 q 465 642 415 662 q 553 582 516 621 q 613 483 591 542 q 634 345 634 423 q 633 312 634 328 q 630 280 632 296 l 205 280 q 227 200 210 233 q 266 144 243 166 q 317 112 289 122 q 375 101 345 101 q 461 121 419 101 q 534 180 503 141 l 620 94 q 375 -22 522 -22 q 245 0 305 -22 q 143 67 186 23 q 75 173 100 110 q 51 315 51 236 q 74 460 51 396 q 138 569 97 524 q 235 638 179 614 q 358 662 291 662 m 479 394 q 470 452 479 425 q 444 500 461 480 q 403 533 427 521 q 349 545 379 545 q 297 535 321 545 q 255 504 273 524 q 226 457 237 484 q 210 394 215 429 l 479 394 m 222 940 q 257 933 240 940 q 288 915 275 927 q 310 886 302 903 q 319 849 319 870 q 311 815 319 831 q 290 787 303 799 q 259 768 277 775 q 222 760 241 760 q 184 768 202 760 q 153 787 167 775 q 133 815 140 799 q 125 849 125 831 q 133 884 125 868 q 153 913 140 900 q 184 932 167 925 q 222 940 202 940 m 477 940 q 512 933 494 940 q 542 915 529 927 q 564 886 556 903 q 573 849 573 870 q 565 815 573 831 q 545 787 558 799 q 514 768 532 775 q 477 760 496 760 q 440 767 457 760 q 409 786 422 774 q 388 815 396 798 q 381 849 381 831 q 388 885 381 868 q 409 913 396 901 q 440 932 422 925 q 477 940 457 940 "},"Î":{"x_min":101.734375,"x_max":600.234375,"ha":695,"o":"m 101 0 l 101 0 m 109 865 l 592 865 l 592 735 l 425 735 l 425 127 l 600 127 l 600 0 l 101 0 l 101 128 l 269 128 l 269 735 l 109 735 l 109 865 m 132 961 l 317 1110 l 360 1110 l 535 963 l 482 901 l 336 992 l 180 905 l 132 961 "},"e":{"x_min":51.546875,"x_max":634.8125,"ha":695,"o":"m 358 662 q 465 642 415 662 q 553 582 516 621 q 613 483 591 542 q 634 345 634 423 q 633 312 634 328 q 630 280 632 296 l 205 280 q 227 200 210 233 q 266 144 243 166 q 317 112 289 122 q 375 101 345 101 q 461 121 419 101 q 534 180 503 141 l 620 94 q 375 -22 522 -22 q 245 0 305 -22 q 143 67 186 23 q 75 173 100 110 q 51 315 51 236 q 74 460 51 396 q 138 569 97 524 q 235 638 179 614 q 358 662 291 662 m 479 394 q 470 452 479 425 q 444 500 461 480 q 403 533 427 521 q 349 545 379 545 q 297 535 321 545 q 255 504 273 524 q 226 457 237 484 q 210 394 215 429 l 479 394 "},"Ã":{"x_min":0,"x_max":695.859375,"ha":695,"o":"m 0 0 l 0 0 m 0 0 l 288 880 l 379 880 l 695 0 l 533 0 l 454 223 l 227 223 l 160 0 l 0 0 m 426 331 l 336 619 l 251 331 l 426 331 m 112 992 q 287 1131 197 1131 q 340 1117 316 1131 q 384 1084 364 1103 q 396 1072 389 1079 q 409 1060 402 1066 q 424 1049 416 1053 q 440 1045 432 1045 q 459 1052 450 1045 q 478 1070 469 1059 q 496 1095 487 1081 q 515 1125 505 1109 l 591 1039 q 550 988 569 1010 q 514 952 531 967 q 481 930 497 937 q 445 922 464 922 q 397 933 419 922 q 355 961 375 944 q 341 975 349 966 q 324 992 333 984 q 305 1007 315 1001 q 284 1013 295 1013 q 247 991 263 1013 q 208 923 231 968 l 112 992 "},"J":{"x_min":34.59375,"x_max":644.3125,"ha":695,"o":"m 197 865 l 644 865 l 644 735 l 514 735 l 514 279 q 494 142 514 200 q 440 48 474 85 q 362 -6 406 11 q 266 -23 317 -23 q 138 6 196 -23 q 34 96 79 37 l 133 216 q 144 209 140 214 q 150 197 147 204 q 156 181 153 189 q 164 164 159 172 q 180 143 172 153 q 200 126 189 133 q 225 114 210 118 q 259 109 240 109 q 334 153 310 109 q 358 297 358 197 l 358 735 l 197 735 l 197 865 "},"»":{"x_min":82.0625,"x_max":637.53125,"ha":695,"o":"m 405 315 l 173 65 l 82 156 l 247 336 l 88 487 l 179 580 l 405 360 l 405 315 m 637 315 l 405 65 l 312 156 l 478 336 l 320 487 l 409 580 l 637 360 l 637 315 "},"©":{"x_min":6.78125,"x_max":690.4375,"ha":695,"o":"m 436 404 q 428 409 430 405 q 426 419 427 413 q 424 430 425 424 q 422 442 424 436 q 396 478 415 464 q 352 491 377 491 q 324 486 338 491 q 299 469 310 481 q 280 438 287 457 q 273 389 273 418 q 293 303 273 337 q 356 269 314 269 q 408 286 388 269 q 441 339 427 304 l 539 276 q 460 193 509 223 q 351 162 411 162 q 267 180 305 162 q 203 228 229 198 q 162 299 177 259 q 148 383 148 339 q 164 467 148 428 q 206 535 179 506 q 267 579 232 563 q 341 596 302 596 q 419 584 385 596 q 478 552 453 573 q 520 503 503 531 q 544 442 536 475 l 436 404 m 588 130 q 477 52 539 79 q 343 25 415 25 q 211 53 272 25 q 104 129 149 81 q 32 242 59 177 q 6 379 6 306 q 33 516 6 452 q 107 629 61 581 q 216 705 153 677 q 348 733 278 733 q 479 705 417 733 q 588 629 541 677 q 662 516 635 581 q 690 379 690 452 q 588 130 690 235 m 349 655 q 254 634 299 655 q 176 575 209 612 q 124 487 143 537 q 105 379 105 436 q 124 272 105 322 q 176 185 143 223 q 254 127 209 148 q 349 105 299 105 q 444 127 400 105 q 522 187 489 149 q 575 275 556 225 q 594 380 594 324 q 575 486 594 436 q 523 574 556 536 q 445 633 490 611 q 349 655 400 655 "},"ò":{"x_min":40.015625,"x_max":654.484375,"ha":695,"o":"m 40 0 l 40 0 m 352 662 q 470 639 415 662 q 566 572 525 616 q 631 465 607 529 q 654 320 654 401 q 631 176 654 240 q 568 68 608 112 q 472 1 527 24 q 351 -22 416 -22 q 229 2 286 -22 q 130 73 172 27 q 64 181 88 118 q 40 318 40 243 q 64 455 40 392 q 132 564 89 518 q 231 636 174 610 q 352 662 288 662 m 499 318 q 488 411 499 370 q 457 480 477 452 q 408 523 436 508 q 348 537 381 537 q 287 523 315 537 q 241 480 260 508 q 210 413 221 453 q 200 323 200 373 q 210 232 200 273 q 240 164 221 192 q 288 120 260 135 q 351 104 316 104 q 459 159 419 104 q 499 318 499 214 m 465 763 l 387 718 l 241 914 l 354 991 l 465 763 "},"^":{"x_min":107.15625,"x_max":580.5625,"ha":695,"o":"m 107 515 l 331 868 l 381 868 l 580 515 l 466 461 l 351 701 l 221 461 l 107 515 "},"«":{"x_min":82.0625,"x_max":637.53125,"ha":695,"o":"m 314 360 l 540 580 l 630 487 l 472 336 l 637 156 l 545 65 l 314 315 l 314 360 m 309 580 l 398 487 l 241 336 l 406 156 l 314 65 l 82 315 l 82 360 l 309 580 "},"D":{"x_min":61.046875,"x_max":661.265625,"ha":695,"o":"m 61 865 l 284 865 q 386 857 342 865 q 464 833 430 849 q 524 796 498 818 q 572 744 550 773 q 638 605 616 685 q 661 426 661 525 q 639 249 661 328 q 569 114 617 170 q 446 29 521 59 q 267 0 372 0 l 61 0 l 61 865 m 212 735 l 212 122 l 265 122 q 446 199 387 122 q 505 422 505 277 q 492 553 505 495 q 452 652 480 611 q 382 714 425 693 q 279 735 339 735 l 212 735 "},"ÿ":{"x_min":15.59375,"x_max":658.546875,"ha":695,"o":"m 15 0 l 15 0 m 400 -70 q 359 -150 382 -117 q 309 -204 336 -183 q 251 -235 282 -225 q 187 -245 220 -245 q 15 -172 91 -245 l 92 -38 q 104 -47 101 -42 q 109 -58 107 -52 q 113 -71 111 -64 q 120 -86 115 -78 q 144 -111 130 -103 q 179 -119 158 -119 q 207 -113 193 -119 q 234 -92 221 -107 q 260 -52 247 -77 q 286 8 273 -28 l 42 648 l 233 648 q 231 635 233 640 q 228 626 230 630 q 225 616 226 621 q 223 604 223 611 l 368 201 l 430 372 q 455 443 443 406 q 477 516 467 480 q 495 585 487 552 q 510 648 503 619 l 658 648 q 616 503 641 578 q 560 351 591 428 l 400 -70 m 221 940 q 256 933 239 940 q 287 915 274 927 q 309 886 301 903 q 318 849 318 870 q 310 815 318 831 q 289 787 302 799 q 258 768 276 775 q 221 760 240 760 q 183 768 201 760 q 152 787 166 775 q 132 815 139 799 q 124 849 124 831 q 132 884 124 868 q 152 913 139 900 q 183 932 166 925 q 221 940 201 940 m 476 940 q 511 933 493 940 q 541 915 528 927 q 563 886 555 903 q 572 849 572 870 q 564 815 572 831 q 544 787 557 799 q 513 768 531 775 q 476 760 495 760 q 439 767 456 760 q 408 786 421 774 q 387 815 395 798 q 380 849 380 831 q 387 885 380 868 q 408 913 395 901 q 439 932 421 925 q 476 940 456 940 "},"í":{"x_min":123.4375,"x_max":576.484375,"ha":695,"o":"m 123 0 l 123 0 m 130 648 l 434 648 l 434 124 l 576 124 l 576 0 l 123 0 l 123 124 l 279 124 l 279 523 l 130 523 l 130 648 m 377 991 l 489 914 l 344 718 l 266 763 l 377 991 "},"ˆ":{"x_min":172.265625,"x_max":536.46875,"ha":695,"o":"m 172 766 l 331 967 l 376 967 l 536 765 l 455 705 l 349 828 l 238 706 l 172 766 "},"w":{"x_min":10.859375,"x_max":677.546875,"ha":695,"o":"m 10 648 l 183 648 q 180 636 183 640 q 175 628 178 632 q 170 621 172 625 q 168 611 168 617 q 168 603 168 607 q 169 596 168 600 l 229 190 l 309 573 l 405 573 l 497 191 q 514 326 507 262 q 524 444 520 390 q 529 539 528 498 q 530 605 530 580 l 530 648 l 677 648 q 657 490 668 573 q 634 323 647 407 q 607 155 621 238 q 577 0 592 73 l 440 0 l 355 360 l 275 0 l 133 0 l 10 648 "},"$":{"x_min":67.828125,"x_max":651.765625,"ha":695,"o":"m 295 904 l 434 904 q 441 898 440 902 q 442 890 442 894 q 441 882 442 888 q 438 870 440 876 q 436 857 437 864 q 434 847 434 851 l 434 825 q 541 780 492 813 q 630 699 590 748 l 548 596 q 533 600 538 596 q 524 612 528 605 q 519 627 521 619 q 512 641 516 634 q 476 672 499 657 q 427 693 453 687 l 427 489 q 524 449 482 471 q 595 399 567 427 q 637 335 623 370 q 651 254 651 299 q 636 172 651 211 q 593 101 621 133 q 525 46 565 69 q 434 13 485 23 l 434 -61 l 295 -61 l 295 9 q 172 52 231 20 q 67 134 113 84 l 152 254 q 170 244 164 250 q 180 229 177 237 q 186 215 183 222 q 191 205 188 208 q 241 162 215 180 q 302 137 267 145 l 302 385 q 213 426 252 404 q 148 476 174 448 q 107 537 121 503 q 92 611 92 571 q 107 683 92 649 q 147 746 121 718 q 211 793 174 773 q 295 823 249 813 l 295 904 m 427 145 q 487 182 464 158 q 510 245 510 206 q 490 302 510 278 q 427 341 470 326 l 427 145 m 302 694 q 256 668 274 687 q 238 619 238 649 q 252 574 238 597 q 302 539 267 551 l 302 694 "},"\\":{"x_min":70.53125,"x_max":625.328125,"ha":695,"o":"m 625 -6 l 503 -65 l 70 868 l 191 931 l 625 -6 "},"Ì":{"x_min":101.734375,"x_max":600.234375,"ha":695,"o":"m 101 0 l 101 0 m 109 865 l 592 865 l 592 735 l 425 735 l 425 127 l 600 127 l 600 0 l 101 0 l 101 128 l 269 128 l 269 735 l 109 735 l 109 865 m 262 1133 l 475 976 l 437 908 l 188 995 l 262 1133 "},"µ":{"x_min":13.5625,"x_max":680.9375,"ha":695,"o":"m 522 173 q 540 111 522 111 q 558 122 548 111 q 573 144 568 132 l 609 213 l 680 82 q 533 -12 614 -12 q 467 3 496 -12 q 421 46 438 18 q 350 2 390 17 q 270 -12 310 -12 q 210 -4 240 -12 q 156 19 181 4 l 156 -213 l 13 -213 q 14 -174 13 -200 q 16 -115 14 -148 q 20 -45 18 -82 q 25 25 22 -8 q 29 101 27 63 q 33 173 31 139 q 37 236 35 208 q 38 283 38 265 l 38 634 l 187 634 l 187 262 q 194 187 187 216 q 215 140 202 158 q 245 115 228 122 q 280 105 262 107 q 315 119 298 109 q 345 147 332 129 q 367 193 359 166 q 376 259 376 221 l 376 634 l 522 634 l 522 173 "},"Ç":{"x_min":40.015625,"x_max":676.1875,"ha":695,"o":"m 426 -145 q 417 -130 426 -138 q 389 -123 407 -123 l 322 -123 l 336 -21 q 216 21 271 -10 q 123 109 162 53 q 62 244 84 165 q 40 427 40 324 q 54 580 40 512 q 94 698 69 647 q 153 785 120 749 q 226 844 187 821 q 305 877 264 866 q 384 887 345 887 q 478 873 433 887 q 560 833 522 859 q 627 770 598 807 q 676 690 657 734 l 536 620 q 528 626 530 622 q 525 636 526 630 q 524 649 525 642 q 520 665 524 657 q 467 735 501 710 q 383 760 434 760 q 308 737 341 760 q 250 671 274 714 q 214 568 227 628 q 201 434 201 507 q 215 303 201 363 q 254 199 229 243 q 314 130 279 155 q 392 105 349 105 q 480 136 442 105 q 548 221 518 167 l 666 144 q 568 32 624 73 q 446 -19 512 -8 l 444 -42 q 524 -74 497 -48 q 552 -141 552 -101 q 541 -185 552 -163 q 509 -224 531 -207 q 453 -252 486 -242 q 375 -263 420 -263 q 286 -249 330 -263 q 200 -200 242 -234 l 251 -112 q 289 -140 271 -129 q 324 -158 307 -151 q 357 -167 341 -164 q 392 -169 374 -169 q 419 -161 411 -169 q 426 -145 426 -153 "},"’":{"x_min":205.5,"x_max":446.953125,"ha":695,"o":"m 446 772 q 406 648 446 716 q 283 495 366 580 l 205 567 q 241 604 224 585 q 269 641 257 623 q 288 675 282 659 q 295 702 295 691 q 289 716 295 710 q 275 730 283 722 q 243 762 257 745 q 229 803 229 779 q 236 840 229 823 q 257 871 244 858 q 290 892 271 885 q 333 900 309 900 q 375 890 355 900 q 412 864 396 881 q 437 823 427 847 q 446 772 446 800 "},"-":{"x_min":88.84375,"x_max":609.71875,"ha":695,"o":"m 88 508 l 609 508 l 609 381 l 88 381 l 88 508 "},"Q":{"x_min":23.734375,"x_max":670.765625,"ha":695,"o":"m 271 -15 q 166 39 212 0 q 88 138 120 79 q 40 272 56 197 q 23 434 23 347 q 46 618 23 535 q 111 761 69 701 q 214 854 153 821 q 349 887 274 887 q 473 859 415 887 q 575 775 531 832 q 644 634 619 719 q 670 433 670 548 q 650 248 670 326 q 595 115 630 169 q 516 29 561 61 q 421 -15 470 -2 q 437 -54 423 -39 q 482 -67 452 -69 l 619 -62 l 615 -202 l 503 -202 q 330 -159 386 -202 q 271 -15 275 -115 m 184 442 q 196 302 184 363 q 230 200 208 241 q 283 137 252 158 q 349 116 313 116 q 409 132 381 116 q 460 185 438 147 q 495 283 482 222 q 508 436 508 345 q 494 582 508 522 q 457 679 480 642 q 407 732 435 716 q 351 748 379 748 q 287 733 318 748 q 234 683 257 718 q 198 589 211 648 q 184 442 184 531 "},"M":{"x_min":41.375,"x_max":661.265625,"ha":695,"o":"m 41 865 l 205 865 l 351 458 l 495 866 l 661 866 l 661 0 l 520 0 l 520 628 l 400 301 l 297 301 l 180 628 l 180 0 l 41 0 l 41 865 "},"C":{"x_min":40.015625,"x_max":676.1875,"ha":695,"o":"m 536 620 q 528 626 530 622 q 525 636 526 630 q 524 649 525 642 q 520 665 524 657 q 467 735 501 710 q 383 760 434 760 q 308 737 341 760 q 250 671 274 714 q 214 568 227 628 q 201 434 201 507 q 215 303 201 363 q 254 199 229 243 q 314 130 279 155 q 392 105 349 105 q 480 136 442 105 q 548 221 518 167 l 666 144 q 548 17 617 60 q 396 -25 478 -25 q 254 2 319 -25 q 141 86 189 29 q 66 227 93 142 q 40 427 40 312 q 54 580 40 512 q 94 698 69 647 q 153 785 120 749 q 226 844 187 821 q 305 877 264 866 q 384 887 345 887 q 478 873 433 887 q 560 833 522 859 q 627 770 598 807 q 676 690 657 734 l 536 620 "},"œ":{"x_min":4.0625,"x_max":699.921875,"ha":695,"o":"m 233 659 q 268 654 251 659 q 302 641 286 649 q 331 622 318 633 q 355 600 345 611 q 380 621 366 611 q 411 641 394 632 q 445 654 427 649 q 482 659 463 659 q 567 642 529 659 q 632 590 605 624 q 672 506 658 556 q 686 393 686 457 l 686 287 l 394 287 q 403 200 395 234 q 424 144 411 165 q 456 115 438 124 q 498 107 475 107 q 531 111 516 107 q 560 125 546 116 q 588 148 574 134 q 619 179 602 161 l 699 78 q 607 5 655 31 q 502 -21 559 -21 q 461 -16 482 -21 q 418 -3 439 -11 q 380 14 398 4 q 351 35 362 24 q 294 -3 327 12 q 225 -19 261 -19 q 145 -3 185 -19 q 74 51 106 12 q 23 156 43 90 q 4 322 4 222 q 23 478 4 413 q 74 582 42 542 q 147 641 106 623 q 233 659 189 659 m 466 539 q 415 504 432 539 q 396 411 398 469 l 545 411 q 525 510 544 480 q 466 539 506 539 m 231 531 q 198 520 214 531 q 170 485 183 509 q 151 424 158 461 q 144 336 144 387 q 168 168 144 226 q 236 111 191 111 q 260 119 251 111 q 269 139 269 127 q 268 146 269 141 q 265 165 267 152 q 255 254 257 209 q 252 335 252 298 q 256 429 252 392 q 262 484 259 467 q 263 493 263 491 q 263 497 263 495 q 256 520 263 510 q 231 531 248 531 "},"!":{"x_min":225.171875,"x_max":441.515625,"ha":695,"o":"m 331 187 q 375 178 355 187 q 410 155 395 169 q 433 123 425 141 q 441 86 441 105 q 432 47 441 65 q 408 15 423 29 q 373 -5 393 2 q 331 -13 353 -13 q 290 -5 309 -13 q 256 15 271 2 q 233 47 242 29 q 225 86 225 65 q 233 124 225 106 q 256 157 242 143 q 290 179 271 170 q 331 187 309 187 m 335 931 q 405 900 379 931 q 432 798 432 869 q 430 767 432 785 q 427 728 429 748 q 423 688 425 708 q 421 653 421 668 l 396 275 l 270 275 l 251 653 q 248 690 250 669 q 243 734 246 712 q 239 776 240 756 q 237 812 237 797 q 262 901 237 870 q 335 931 288 931 "},"ç":{"x_min":52.90625,"x_max":641.59375,"ha":695,"o":"m 541 421 q 533 426 535 422 q 529 434 530 430 q 526 445 527 439 q 523 457 525 451 q 468 511 504 489 q 381 533 433 533 q 315 517 346 533 q 261 475 284 502 q 224 409 238 447 q 210 326 210 371 q 223 241 210 280 q 258 172 236 202 q 313 127 281 143 q 383 111 344 111 q 422 115 402 111 q 464 130 443 120 q 505 157 485 140 q 545 197 526 173 l 636 92 q 547 20 595 46 q 446 -15 499 -6 l 444 -42 q 524 -74 497 -48 q 552 -141 552 -101 q 541 -185 552 -163 q 509 -224 531 -207 q 453 -252 486 -242 q 375 -263 420 -263 q 286 -249 330 -263 q 200 -200 242 -234 l 251 -112 q 289 -140 271 -129 q 324 -158 307 -151 q 357 -167 341 -164 q 392 -169 374 -169 q 419 -161 411 -169 q 426 -145 426 -153 q 417 -130 426 -138 q 389 -123 407 -123 l 322 -123 l 336 -19 q 221 15 273 -12 q 131 87 168 43 q 73 190 94 132 q 52 318 52 249 q 76 453 52 390 q 143 562 100 516 q 247 635 187 609 q 381 662 308 662 q 460 654 422 662 q 532 630 498 646 q 593 591 565 615 q 641 537 621 568 l 541 421 "},"È":{"x_min":78,"x_max":641.59375,"ha":695,"o":"m 78 0 l 78 0 m 78 865 l 641 865 l 641 731 l 229 731 l 229 518 l 571 518 l 571 381 l 229 381 l 229 133 l 638 133 l 638 0 l 78 0 l 78 865 m 262 1133 l 475 976 l 437 908 l 188 995 l 262 1133 "},"{":{"x_min":62.390625,"x_max":579.203125,"ha":695,"o":"m 197 35 q 198 64 197 46 q 199 102 198 82 q 200 141 200 122 q 201 173 201 160 q 196 230 201 208 q 180 266 190 252 q 154 284 170 279 q 120 290 139 290 l 62 290 l 62 413 l 119 413 q 183 439 162 413 q 204 524 204 465 q 203 549 204 533 q 202 582 203 564 q 201 614 202 599 q 201 634 201 629 q 267 822 201 758 q 466 885 334 885 l 579 885 l 579 759 l 442 759 q 376 731 398 759 q 355 648 355 704 q 355 623 355 638 q 356 592 356 608 q 357 561 357 575 q 358 540 358 547 q 331 430 358 478 q 259 352 305 382 q 298 319 280 339 q 328 273 315 299 q 348 218 341 248 q 355 153 355 187 q 355 127 355 146 q 354 89 354 109 q 353 54 353 70 q 352 35 352 38 q 382 -66 352 -35 q 480 -98 412 -98 l 577 -98 l 577 -221 l 499 -221 q 457 -219 485 -221 q 397 -212 429 -217 q 333 -198 364 -207 q 282 -173 302 -189 q 218 -87 239 -141 q 197 35 197 -33 "},"X":{"x_min":29.15625,"x_max":686.359375,"ha":695,"o":"m 497 865 l 658 865 l 442 442 l 686 0 l 511 0 l 352 297 l 198 0 l 29 0 l 262 441 l 31 865 l 201 865 l 351 581 l 497 865 "},"ô":{"x_min":40.015625,"x_max":654.484375,"ha":695,"o":"m 40 0 l 40 0 m 352 662 q 470 639 415 662 q 566 572 525 616 q 631 465 607 529 q 654 320 654 401 q 631 176 654 240 q 568 68 608 112 q 472 1 527 24 q 351 -22 416 -22 q 229 2 286 -22 q 130 73 172 27 q 64 181 88 118 q 40 318 40 243 q 64 455 40 392 q 132 564 89 518 q 231 636 174 610 q 352 662 288 662 m 499 318 q 488 411 499 370 q 457 480 477 452 q 408 523 436 508 q 348 537 381 537 q 287 523 315 537 q 241 480 260 508 q 210 413 221 453 q 200 323 200 373 q 210 232 200 273 q 240 164 221 192 q 288 120 260 135 q 351 104 316 104 q 459 159 419 104 q 499 318 499 214 m 172 766 l 331 967 l 376 967 l 536 765 l 455 705 l 349 828 l 238 706 l 172 766 "},"¼":{"x_min":0,"x_max":683.65625,"ha":695,"o":"m 530 348 l 617 348 l 617 91 l 683 91 l 683 5 l 617 5 l 617 -96 l 498 -96 l 498 5 l 309 5 l 309 67 l 530 348 m 499 174 l 432 88 l 499 88 l 499 174 m 247 940 l 247 507 l 122 507 l 122 812 l 31 788 l 0 852 l 162 940 l 247 940 m 76 -6 l 507 926 l 628 864 l 198 -65 l 76 -6 "},"#":{"x_min":26.453125,"x_max":672.125,"ha":695,"o":"m 221 869 l 364 870 l 337 653 l 412 653 l 437 866 l 580 868 l 555 655 l 672 655 l 658 544 l 541 544 l 520 356 l 644 356 l 636 248 l 508 248 l 480 18 l 337 9 l 366 244 l 288 244 l 261 16 l 122 15 l 147 242 l 26 242 l 34 351 l 162 351 l 183 540 l 46 540 l 52 649 l 196 649 l 221 869 m 322 541 l 301 354 l 377 354 l 400 541 l 322 541 "},"Ê":{"x_min":78,"x_max":641.59375,"ha":695,"o":"m 78 0 l 78 0 m 78 865 l 641 865 l 641 731 l 229 731 l 229 518 l 571 518 l 571 381 l 229 381 l 229 133 l 638 133 l 638 0 l 78 0 l 78 865 m 145 961 l 330 1110 l 373 1110 l 548 963 l 495 901 l 349 992 l 193 905 l 145 961 "},")":{"x_min":90.203125,"x_max":531.734375,"ha":695,"o":"m 134 931 q 300 831 227 893 q 425 693 373 769 q 504 527 476 616 q 531 345 531 439 q 503 160 531 251 q 422 -9 474 69 q 294 -151 369 -88 q 126 -252 219 -214 l 90 -134 q 216 -52 160 -102 q 309 60 271 -2 q 367 193 347 122 q 387 341 387 265 q 312 619 387 499 q 98 811 238 739 l 134 931 "},"Å":{"x_min":0,"x_max":695.859375,"ha":695,"o":"m 331 1126 q 387 1115 361 1126 q 434 1085 414 1104 q 466 1042 454 1066 q 478 988 478 1017 q 471 947 478 967 q 451 910 463 927 q 422 880 439 893 q 385 859 405 867 l 695 0 l 533 0 l 454 223 l 227 223 l 160 0 l 0 0 l 282 858 q 244 878 261 866 q 215 908 227 891 q 196 946 202 925 q 189 988 189 966 q 200 1042 189 1017 q 231 1085 212 1066 q 276 1115 250 1104 q 331 1126 302 1126 m 426 331 l 336 609 l 251 331 l 426 331 m 288 990 q 301 953 288 968 q 333 938 314 938 q 364 953 352 938 q 377 990 377 968 q 364 1027 377 1011 q 333 1043 352 1043 q 301 1027 314 1043 q 288 990 288 1011 "},"ø":{"x_min":40.015625,"x_max":654.484375,"ha":695,"o":"m 609 661 l 562 575 q 629 467 604 531 q 654 320 654 403 q 631 176 654 240 q 568 68 608 112 q 472 1 527 24 q 351 -22 416 -22 q 245 -2 297 -22 l 197 -94 l 78 -31 l 133 70 q 64 178 89 115 q 40 318 40 241 q 64 455 40 392 q 132 564 89 518 q 231 636 174 610 q 352 662 288 662 q 400 658 376 662 q 445 648 423 655 l 489 726 l 609 661 m 308 109 q 329 105 318 106 q 351 104 339 104 q 459 159 419 104 q 499 318 499 214 q 483 429 499 381 l 308 109 m 383 533 q 348 537 368 537 q 287 523 315 537 q 241 480 260 508 q 210 413 221 453 q 200 323 200 373 q 203 268 200 294 q 213 219 206 242 l 383 533 "},"â":{"x_min":55.609375,"x_max":613.796875,"ha":695,"o":"m 55 0 l 55 0 m 104 556 q 349 662 204 662 q 460 647 411 662 q 543 598 509 631 q 595 515 577 565 q 613 394 613 464 l 613 0 l 465 0 l 465 58 q 378 3 428 23 q 276 -16 327 -16 q 178 -1 219 -16 q 109 39 136 13 q 68 99 82 65 q 55 172 55 134 q 76 264 55 222 q 139 336 98 305 q 241 383 181 366 q 381 400 302 400 l 463 400 q 434 507 462 474 q 344 540 405 540 q 183 454 265 540 l 104 556 m 411 283 q 310 276 349 284 q 248 252 271 267 q 218 218 226 238 q 209 180 209 199 q 217 149 209 164 q 237 125 224 135 q 267 108 250 114 q 304 101 284 101 q 361 112 336 101 q 406 139 387 124 q 438 172 425 155 q 457 201 451 189 q 465 231 462 211 q 467 282 467 251 l 411 283 m 182 766 l 341 967 l 386 967 l 546 765 l 465 705 l 359 828 l 248 706 l 182 766 "},"}":{"x_min":116.65625,"x_max":633.453125,"ha":695,"o":"m 498 35 q 477 -87 498 -33 q 413 -173 456 -141 q 362 -198 393 -189 q 298 -212 330 -207 q 238 -219 266 -217 q 196 -221 210 -221 l 118 -221 l 118 -98 l 215 -98 q 313 -66 283 -98 q 343 35 343 -35 q 342 54 343 38 q 341 89 342 70 q 340 127 341 109 q 340 153 340 146 q 347 218 340 187 q 367 273 354 248 q 397 319 379 299 q 436 352 415 339 q 363 430 389 382 q 337 540 337 478 q 338 561 337 547 q 339 592 338 575 q 340 623 339 608 q 340 648 340 638 q 319 731 340 704 q 252 759 297 759 l 116 759 l 116 885 l 229 885 q 427 822 361 885 q 494 634 494 758 q 494 614 494 629 q 493 582 493 599 q 492 549 492 564 q 491 524 491 533 q 512 439 491 465 q 576 413 533 413 l 633 413 l 633 290 l 575 290 q 540 284 555 290 q 515 266 525 279 q 499 230 505 252 q 494 173 494 208 q 495 141 494 160 q 496 102 495 122 q 497 64 497 82 q 498 35 498 46 "},"Ä":{"x_min":0,"x_max":695.859375,"ha":695,"o":"m 0 0 l 0 0 m 0 0 l 288 880 l 379 880 l 695 0 l 533 0 l 454 223 l 227 223 l 160 0 l 0 0 m 426 331 l 336 619 l 251 331 l 426 331 m 206 1127 q 245 1120 227 1127 q 277 1099 263 1112 q 297 1070 290 1087 q 304 1037 304 1054 q 296 1003 304 1019 q 275 974 288 986 q 244 955 262 963 q 206 948 226 948 q 169 955 187 948 q 139 974 151 963 q 118 1003 126 986 q 111 1037 111 1019 q 118 1072 111 1056 q 139 1101 126 1088 q 169 1120 151 1113 q 206 1127 187 1127 m 462 1127 q 501 1120 484 1127 q 532 1099 519 1112 q 551 1070 544 1086 q 558 1037 558 1053 q 550 1003 558 1019 q 530 974 543 986 q 499 955 517 963 q 462 948 482 948 q 425 955 442 948 q 394 974 407 962 q 374 1002 381 986 q 366 1037 366 1018 q 374 1072 366 1056 q 394 1101 381 1089 q 425 1120 407 1113 q 462 1127 442 1127 "},"¸":{"x_min":200.078125,"x_max":552.75,"ha":695,"o":"m 426 -145 q 417 -130 426 -138 q 389 -123 407 -123 l 322 -123 l 339 0 l 450 0 l 444 -42 q 524 -74 497 -48 q 552 -141 552 -101 q 541 -185 552 -163 q 509 -224 531 -207 q 453 -252 486 -242 q 375 -263 420 -263 q 286 -249 330 -263 q 200 -200 242 -234 l 251 -112 q 289 -140 271 -129 q 324 -158 307 -151 q 357 -167 341 -164 q 392 -169 374 -169 q 419 -161 411 -169 q 426 -145 426 -153 "},"a":{"x_min":55.609375,"x_max":613.796875,"ha":695,"o":"m 104 556 q 349 662 204 662 q 460 647 411 662 q 543 598 509 631 q 595 515 577 565 q 613 394 613 464 l 613 0 l 465 0 l 465 58 q 378 3 428 23 q 276 -16 327 -16 q 178 -1 219 -16 q 109 39 136 13 q 68 99 82 65 q 55 172 55 134 q 76 264 55 222 q 139 336 98 305 q 241 383 181 366 q 381 400 302 400 l 463 400 q 434 507 462 474 q 344 540 405 540 q 183 454 265 540 l 104 556 m 411 283 q 310 276 349 284 q 248 252 271 267 q 218 218 226 238 q 209 180 209 199 q 217 149 209 164 q 237 125 224 135 q 267 108 250 114 q 304 101 284 101 q 361 112 336 101 q 406 139 387 124 q 438 172 425 155 q 457 201 451 189 q 465 231 462 211 q 467 282 467 251 l 411 283 "},"=":{"x_min":56.96875,"x_max":644.3125,"ha":695,"o":"m 56 637 l 644 637 l 644 519 l 56 519 l 56 637 m 56 354 l 644 354 l 644 236 l 56 236 l 56 354 "},"N":{"x_min":44.765625,"x_max":662.625,"ha":695,"o":"m 649 0 l 478 0 l 184 654 l 184 0 l 44 0 l 44 865 l 234 865 l 510 245 l 510 865 l 659 865 q 662 858 662 862 q 657 845 662 853 q 649 816 652 837 l 649 0 "},"˚":{"x_min":202.78125,"x_max":491.71875,"ha":695,"o":"m 345 987 q 402 976 375 987 q 448 946 428 965 q 480 903 468 927 q 491 849 491 878 q 480 796 491 821 q 448 752 468 771 q 402 722 428 733 q 345 711 375 711 q 290 722 316 711 q 245 752 264 733 q 214 796 225 771 q 202 849 202 821 q 214 903 202 878 q 245 946 225 927 q 290 976 264 965 q 345 987 316 987 m 302 851 q 315 814 302 829 q 347 800 328 800 q 379 814 366 800 q 392 851 392 829 q 379 888 392 872 q 347 904 366 904 q 315 888 328 904 q 302 851 302 872 "},"ú":{"x_min":70.53125,"x_max":625.328125,"ha":695,"o":"m 70 0 l 70 0 m 612 648 l 612 78 q 616 40 612 60 q 625 0 619 21 l 474 0 q 463 18 466 6 q 461 40 461 30 l 461 61 q 426 23 446 40 q 382 -4 406 7 q 334 -21 358 -15 q 286 -27 309 -27 q 195 -12 235 -27 q 127 34 155 2 q 85 118 99 67 q 70 242 70 170 l 70 648 l 223 648 l 223 242 q 249 133 223 168 q 316 99 274 99 q 371 111 345 99 q 415 144 396 123 q 444 194 434 165 q 455 259 455 224 l 455 648 l 612 648 m 387 991 l 499 914 l 354 718 l 276 763 l 387 991 "},"⁄":{"x_min":83.421875,"x_max":629.390625,"ha":695,"o":"m 83 -5 l 514 931 l 629 866 l 197 -67 l 83 -5 "},"2":{"x_min":75.28125,"x_max":616.5,"ha":695,"o":"m 75 710 q 184 840 114 795 q 344 885 254 885 q 453 864 403 885 q 538 809 502 844 q 594 728 574 774 q 615 630 615 682 q 595 532 615 577 q 545 446 576 486 q 476 368 514 406 q 398 293 437 331 q 325 215 360 255 q 266 128 290 174 l 565 128 q 578 133 573 129 q 589 141 583 137 q 600 148 594 145 q 616 151 607 151 l 616 0 l 79 0 l 79 86 q 125 175 98 132 q 181 257 151 218 q 242 329 211 295 q 302 394 274 364 q 350 443 324 417 q 401 498 377 469 q 440 560 424 527 q 455 629 455 592 q 447 677 455 654 q 423 716 438 699 q 386 742 408 733 q 339 752 364 752 q 285 744 306 752 q 250 722 263 735 q 228 694 236 710 q 215 662 221 678 q 205 635 210 647 q 194 616 201 622 l 75 710 "},"ü":{"x_min":70.53125,"x_max":625.328125,"ha":695,"o":"m 70 0 l 70 0 m 612 648 l 612 78 q 616 40 612 60 q 625 0 619 21 l 474 0 q 463 18 466 6 q 461 40 461 30 l 461 61 q 426 23 446 40 q 382 -4 406 7 q 334 -21 358 -15 q 286 -27 309 -27 q 195 -12 235 -27 q 127 34 155 2 q 85 118 99 67 q 70 242 70 170 l 70 648 l 223 648 l 223 242 q 249 133 223 168 q 316 99 274 99 q 371 111 345 99 q 415 144 396 123 q 444 194 434 165 q 455 259 455 224 l 455 648 l 612 648 m 221 940 q 256 933 239 940 q 287 915 274 927 q 309 886 301 903 q 318 849 318 870 q 310 815 318 831 q 289 787 302 799 q 258 768 276 775 q 221 760 240 760 q 183 768 201 760 q 152 787 166 775 q 132 815 139 799 q 124 849 124 831 q 132 884 124 868 q 152 913 139 900 q 183 932 166 925 q 221 940 201 940 m 476 940 q 511 933 493 940 q 541 915 528 927 q 563 886 555 903 q 572 849 572 870 q 564 815 572 831 q 544 787 557 799 q 513 768 531 775 q 476 760 495 760 q 439 767 456 760 q 408 786 421 774 q 387 815 395 798 q 380 849 380 831 q 387 885 380 868 q 408 913 395 901 q 439 932 421 925 q 476 940 456 940 "},"¯":{"x_min":149.890625,"x_max":539.1875,"ha":695,"o":"m 149 891 l 539 891 l 539 769 l 149 769 l 149 891 "},"Z":{"x_min":56.96875,"x_max":661.265625,"ha":695,"o":"m 71 865 l 640 865 l 640 771 l 255 133 l 588 133 q 612 139 603 135 q 629 145 621 142 q 643 151 636 149 q 661 153 650 153 l 661 0 l 56 0 l 56 94 l 448 730 l 71 730 l 71 865 "},"u":{"x_min":70.53125,"x_max":625.328125,"ha":695,"o":"m 612 648 l 612 78 q 616 40 612 60 q 625 0 619 21 l 474 0 q 463 18 466 6 q 461 40 461 30 l 461 61 q 426 23 446 40 q 382 -4 406 7 q 334 -21 358 -15 q 286 -27 309 -27 q 195 -12 235 -27 q 127 34 155 2 q 85 118 99 67 q 70 242 70 170 l 70 648 l 223 648 l 223 242 q 249 133 223 168 q 316 99 274 99 q 371 111 345 99 q 415 144 396 123 q 444 194 434 165 q 455 259 455 224 l 455 648 l 612 648 "},"˜":{"x_min":119.375,"x_max":598.875,"ha":695,"o":"m 119 825 q 294 963 204 963 q 348 949 324 963 q 392 916 372 935 q 403 904 396 911 q 416 891 409 897 q 431 881 423 885 q 446 877 438 877 q 466 884 457 877 q 485 902 476 891 q 503 927 494 913 q 522 956 512 942 l 598 870 q 557 821 576 843 q 522 784 539 799 q 488 761 505 769 q 453 754 471 754 q 404 765 426 754 q 362 792 382 776 q 348 807 356 798 q 331 824 340 815 q 311 839 322 833 q 291 845 301 845 q 254 823 270 845 q 215 755 238 800 l 119 825 "},"Ó":{"x_min":23.734375,"x_max":670.765625,"ha":695,"o":"m 23 0 l 23 0 m 348 -25 q 211 9 271 -25 q 109 104 151 43 q 45 250 67 166 q 23 434 23 335 q 46 618 23 535 q 111 761 69 701 q 214 854 153 821 q 349 887 274 887 q 473 859 415 887 q 575 775 531 832 q 644 634 619 719 q 670 433 670 548 q 657 283 670 349 q 622 166 644 217 q 569 79 600 115 q 503 19 539 42 q 427 -14 467 -3 q 348 -25 388 -25 m 184 442 q 196 302 184 363 q 230 200 208 241 q 283 137 252 158 q 349 116 313 116 q 409 132 381 116 q 460 185 438 147 q 495 283 482 222 q 508 436 508 345 q 494 582 508 522 q 457 679 480 642 q 407 732 435 716 q 351 748 379 748 q 287 733 318 748 q 234 683 257 718 q 198 589 211 648 q 184 442 184 531 m 518 995 l 267 908 l 230 976 l 442 1133 l 518 995 "},"k":{"x_min":83.421875,"x_max":697.21875,"ha":695,"o":"m 83 937 l 259 937 q 257 924 259 929 q 250 916 254 919 q 244 908 247 912 q 240 898 240 904 l 240 409 l 489 655 q 568 644 538 644 l 669 644 l 404 388 q 476 296 438 347 q 553 192 514 244 q 628 90 591 140 q 697 1 665 40 l 507 -5 l 293 293 l 240 242 l 240 0 l 83 0 l 83 937 "},"Ù":{"x_min":51.546875,"x_max":642.953125,"ha":695,"o":"m 51 0 l 51 0 m 51 865 l 216 865 q 219 862 219 863 q 219 858 219 860 q 218 852 219 855 q 214 845 216 849 q 209 833 212 840 q 206 816 207 826 l 206 304 q 213 223 206 259 q 236 162 220 187 q 280 123 252 137 q 347 109 307 109 q 416 123 388 109 q 460 163 443 137 q 483 225 476 189 q 490 308 490 262 l 490 865 l 642 865 l 642 309 q 621 163 642 225 q 562 60 600 101 q 468 0 523 19 q 345 -19 413 -19 q 218 2 273 -19 q 126 67 163 25 q 70 169 88 109 q 51 305 51 229 l 51 865 m 261 1133 l 474 976 l 436 908 l 187 995 l 261 1133 "},"€":{"x_min":26.453125,"x_max":665.34375,"ha":695,"o":"m 613 647 q 588 681 601 663 q 556 715 575 699 q 511 741 538 731 q 445 751 484 751 q 337 711 385 751 q 267 591 288 670 l 594 591 l 547 465 l 247 465 q 245 442 246 453 q 245 423 245 432 l 245 402 l 527 402 l 479 278 l 259 278 q 326 151 279 195 q 444 107 374 107 q 521 126 486 107 q 594 181 556 146 l 658 67 q 556 2 609 25 q 438 -21 503 -21 q 321 0 375 -21 q 225 58 267 19 q 154 152 183 96 q 112 278 125 208 l 26 278 l 55 402 l 99 405 l 99 436 q 100 450 99 443 q 101 465 100 457 l 27 465 l 56 591 l 122 591 q 172 721 139 668 q 249 809 206 775 q 345 859 293 843 q 451 874 397 874 q 665 781 580 874 l 613 647 "},"¢":{"x_min":54.265625,"x_max":640.25,"ha":695,"o":"m 545 472 q 537 477 539 473 q 533 485 534 480 q 530 496 531 491 q 527 508 529 502 q 502 539 517 524 q 469 563 488 553 l 417 165 q 484 190 450 170 q 550 248 518 210 l 640 144 q 528 59 589 86 q 400 29 467 32 l 381 -109 l 245 -92 l 263 48 q 178 97 217 66 q 112 169 139 128 q 69 261 84 210 q 54 369 54 311 q 75 495 54 436 q 134 600 96 554 q 227 674 173 645 q 345 711 280 704 l 365 866 l 515 852 q 511 832 515 841 q 502 808 507 824 l 487 699 q 637 594 579 675 l 545 472 m 212 377 q 229 278 212 322 q 282 202 246 233 l 327 573 q 279 545 301 564 q 243 501 258 526 q 220 444 228 476 q 212 377 212 413 "},"ß":{"x_min":52.90625,"x_max":644.3125,"ha":695,"o":"m 52 0 l 52 579 q 70 731 52 664 q 123 843 88 797 q 208 913 158 889 q 323 937 259 937 q 432 914 383 937 q 514 855 480 892 q 567 771 548 818 q 585 674 585 724 q 578 621 585 647 q 558 573 571 596 q 528 532 545 550 q 491 501 510 513 q 554 463 526 486 q 602 408 583 440 q 633 339 622 377 q 644 257 644 300 q 627 143 644 194 q 576 55 610 92 q 493 -1 543 18 q 376 -21 442 -21 q 303 -9 337 -21 q 231 22 269 1 l 309 144 q 381 111 345 111 q 426 121 406 111 q 462 148 447 130 q 486 191 478 166 q 495 245 495 215 q 484 318 495 284 q 452 375 474 351 q 399 412 431 398 q 324 425 367 425 l 255 425 l 255 548 l 333 548 q 374 556 356 548 q 407 580 393 564 q 428 623 421 597 q 436 685 436 649 q 428 732 436 709 q 407 773 421 755 q 371 801 393 790 q 320 812 349 812 q 267 795 290 812 q 230 748 245 778 q 209 675 216 717 q 202 581 202 632 l 202 0 l 52 0 "},"é":{"x_min":51.546875,"x_max":634.8125,"ha":695,"o":"m 51 0 l 51 0 m 358 662 q 465 642 415 662 q 553 582 516 621 q 613 483 591 542 q 634 345 634 423 q 633 312 634 328 q 630 280 632 296 l 205 280 q 227 200 210 233 q 266 144 243 166 q 317 112 289 122 q 375 101 345 101 q 461 121 419 101 q 534 180 503 141 l 620 94 q 375 -22 522 -22 q 245 0 305 -22 q 143 67 186 23 q 75 173 100 110 q 51 315 51 236 q 74 460 51 396 q 138 569 97 524 q 235 638 179 614 q 358 662 291 662 m 479 394 q 470 452 479 425 q 444 500 461 480 q 403 533 427 521 q 349 545 379 545 q 297 535 321 545 q 255 504 273 524 q 226 457 237 484 q 210 394 215 429 l 479 394 m 387 991 l 499 914 l 354 718 l 276 763 l 387 991 "},"s":{"x_min":65.109375,"x_max":623.96875,"ha":695,"o":"m 541 437 q 533 440 536 437 q 528 447 530 443 q 525 457 526 452 q 522 466 524 462 q 491 495 510 481 q 451 519 473 509 q 404 535 429 529 q 355 541 379 541 q 315 538 334 541 q 281 529 296 535 q 258 511 267 522 q 250 484 250 500 q 259 455 250 467 q 286 433 268 443 q 333 415 305 423 q 398 396 360 406 q 569 312 514 363 q 623 196 623 261 q 604 112 623 151 q 548 43 584 73 q 461 -4 512 12 q 347 -22 410 -22 q 195 3 265 -22 q 65 87 126 29 l 145 233 q 158 223 153 231 q 168 200 162 215 q 199 165 179 182 q 244 135 219 149 q 297 113 269 122 q 349 105 324 105 q 436 121 405 105 q 466 169 466 137 q 459 198 466 185 q 438 220 453 210 q 400 240 423 231 q 341 259 376 249 q 304 270 322 265 q 266 283 285 276 q 198 315 228 297 q 148 356 168 333 q 116 406 127 378 q 105 469 105 434 q 125 538 105 503 q 178 600 144 573 q 259 645 212 628 q 362 662 306 662 q 500 636 436 662 q 616 550 563 609 l 541 437 "},"B":{"x_min":55.609375,"x_max":654.484375,"ha":695,"o":"m 55 865 l 318 865 q 453 849 396 865 q 548 803 510 832 q 602 732 585 773 q 620 641 620 691 q 613 590 620 615 q 592 540 606 564 q 559 497 578 517 q 515 463 539 477 q 571 426 545 449 q 615 375 596 403 q 643 316 633 347 q 654 254 654 285 q 634 150 654 197 q 572 69 614 103 q 467 18 531 36 q 316 0 403 0 l 55 0 l 55 865 m 210 735 l 210 527 l 305 527 q 380 535 349 527 q 428 558 410 543 q 455 591 447 572 q 463 633 463 611 q 455 672 463 653 q 428 705 446 691 q 383 727 411 718 q 319 735 356 735 l 210 735 m 210 401 l 210 132 l 331 132 q 397 138 368 132 q 448 159 427 144 q 480 198 469 174 q 491 258 491 222 q 481 315 491 288 q 450 360 472 341 q 394 390 429 379 q 309 401 359 401 l 210 401 "},"?":{"x_min":76.640625,"x_max":617.859375,"ha":695,"o":"m 365 168 q 401 160 383 168 q 434 140 419 153 q 458 109 449 127 q 467 71 467 92 q 459 36 467 53 q 437 6 451 19 q 405 -13 423 -6 q 365 -21 386 -21 q 324 -13 343 -21 q 291 6 305 -6 q 269 36 277 19 q 261 71 261 53 q 269 108 261 90 q 291 139 277 126 q 324 160 305 152 q 365 168 343 168 m 76 773 q 131 839 101 810 q 199 890 162 869 q 275 922 235 910 q 359 933 316 933 q 467 913 419 933 q 548 858 515 893 q 599 778 581 824 q 617 682 617 733 q 607 612 617 642 q 578 554 596 581 q 533 503 559 528 q 476 454 507 479 q 451 428 460 442 q 437 400 442 415 q 432 369 433 385 q 430 333 430 352 l 430 257 l 293 257 l 293 333 q 295 386 293 362 q 306 434 297 410 q 334 484 315 458 q 387 544 353 510 q 445 620 429 586 q 462 689 462 655 q 454 736 462 714 q 431 774 446 758 q 397 800 417 790 q 354 809 377 809 q 304 799 328 809 q 259 772 281 790 q 218 730 238 754 q 180 674 198 705 l 76 773 "},"H":{"x_min":59.6875,"x_max":647.03125,"ha":695,"o":"m 634 0 l 474 0 l 474 387 l 219 387 l 219 0 l 59 0 l 59 865 l 229 865 q 231 858 231 862 q 230 852 231 855 q 226 845 228 849 q 222 833 224 840 q 219 816 220 826 l 219 516 l 474 516 l 474 865 l 644 865 q 647 858 647 862 q 645 852 647 855 q 641 845 643 849 q 637 833 639 840 q 634 816 635 826 l 634 0 "},"î":{"x_min":123.4375,"x_max":576.484375,"ha":695,"o":"m 123 0 l 123 0 m 130 648 l 434 648 l 434 124 l 576 124 l 576 0 l 123 0 l 123 124 l 279 124 l 279 523 l 130 523 l 130 648 m 145 766 l 304 967 l 349 967 l 509 765 l 428 705 l 322 828 l 211 706 l 145 766 "},"c":{"x_min":52.90625,"x_max":641.59375,"ha":695,"o":"m 541 421 q 533 426 535 422 q 529 434 530 430 q 526 445 527 439 q 523 457 525 451 q 468 511 504 489 q 381 533 433 533 q 315 517 346 533 q 261 475 284 502 q 224 409 238 447 q 210 326 210 371 q 223 241 210 280 q 258 172 236 202 q 313 127 281 143 q 383 111 344 111 q 422 115 402 111 q 464 130 443 120 q 505 157 485 140 q 545 197 526 173 l 636 92 q 515 4 581 31 q 376 -22 449 -22 q 245 3 305 -22 q 143 74 186 29 q 76 182 101 120 q 52 318 52 244 q 76 453 52 390 q 143 562 100 516 q 247 635 187 609 q 381 662 308 662 q 460 654 422 662 q 532 630 498 646 q 593 591 565 615 q 641 537 621 568 l 541 421 "},"¶":{"x_min":70.53125,"x_max":630.75,"ha":695,"o":"m 630 925 l 630 -95 l 493 -95 l 493 801 l 438 801 l 438 -95 l 299 -95 l 299 440 q 208 469 250 447 q 135 524 166 491 q 87 597 105 556 q 70 683 70 638 q 88 776 70 733 q 146 853 105 820 q 253 905 187 886 q 417 925 320 925 l 630 925 "},"•":{"x_min":212.28125,"x_max":493.0625,"ha":695,"o":"m 212 417 q 223 468 212 444 q 253 511 234 493 q 298 539 272 529 q 352 550 323 550 q 407 539 381 550 q 452 511 433 529 q 482 468 471 493 q 493 417 493 444 q 482 366 493 390 q 452 325 471 343 q 407 296 433 307 q 352 286 381 286 q 298 296 323 286 q 253 325 272 307 q 223 366 234 343 q 212 417 212 390 "},"¥":{"x_min":23.734375,"x_max":670.765625,"ha":695,"o":"m 103 401 l 278 401 l 23 865 l 196 865 l 358 537 l 508 865 l 670 865 l 433 401 l 604 401 l 604 278 l 433 278 l 433 236 l 604 236 l 604 113 l 433 113 l 433 0 l 282 0 l 282 113 l 103 113 l 103 236 l 282 236 l 282 278 l 103 278 l 103 401 "},"(":{"x_min":162.78125,"x_max":600.234375,"ha":695,"o":"m 600 803 q 576 797 586 797 q 561 799 568 797 q 548 801 554 801 q 544 801 546 801 q 539 800 542 801 q 441 724 484 768 q 368 624 398 680 q 323 500 339 569 q 307 352 307 432 q 327 201 307 274 q 385 65 347 128 q 476 -51 423 1 q 597 -144 530 -105 l 536 -248 q 380 -141 449 -204 q 263 0 311 -78 q 188 167 215 77 q 162 355 162 257 q 189 543 162 455 q 264 705 215 632 q 382 835 313 778 q 536 930 451 892 l 600 803 "},"U":{"x_min":51.546875,"x_max":642.953125,"ha":695,"o":"m 51 865 l 216 865 q 219 862 219 863 q 219 858 219 860 q 218 852 219 855 q 214 845 216 849 q 209 833 212 840 q 206 816 207 826 l 206 304 q 213 223 206 259 q 236 162 220 187 q 280 123 252 137 q 347 109 307 109 q 416 123 388 109 q 460 163 443 137 q 483 225 476 189 q 490 308 490 262 l 490 865 l 642 865 l 642 309 q 621 163 642 225 q 562 60 600 101 q 468 0 523 19 q 345 -19 413 -19 q 218 2 273 -19 q 126 67 163 25 q 70 169 88 109 q 51 305 51 229 l 51 865 "},"Ñ":{"x_min":44.765625,"x_max":662.625,"ha":695,"o":"m 44 0 l 44 0 m 649 0 l 478 0 l 184 654 l 184 0 l 44 0 l 44 865 l 234 865 l 510 245 l 510 865 l 659 865 q 662 858 662 862 q 657 845 662 853 q 649 816 652 837 l 649 0 m 119 992 q 294 1131 204 1131 q 347 1117 323 1131 q 391 1084 371 1103 q 403 1072 396 1079 q 416 1060 409 1066 q 431 1049 423 1053 q 447 1045 439 1045 q 466 1052 457 1045 q 485 1070 476 1059 q 503 1095 494 1081 q 522 1125 512 1109 l 598 1039 q 557 988 576 1010 q 521 952 538 967 q 488 930 504 937 q 452 922 471 922 q 404 933 426 922 q 362 961 382 944 q 348 975 356 966 q 331 992 340 984 q 312 1007 322 1001 q 291 1013 302 1013 q 254 991 270 1013 q 215 923 238 968 l 119 992 "},"F":{"x_min":94.265625,"x_max":632.109375,"ha":695,"o":"m 94 865 l 632 865 l 632 733 l 250 733 l 250 530 l 558 530 l 558 400 l 250 400 l 250 0 l 94 0 l 94 865 "},"­":{"x_min":88.84375,"x_max":609.71875,"ha":695,"o":"m 88 381 l 88 381 m 88 508 l 609 508 l 609 381 l 88 381 l 88 508 "},":":{"x_min":221.09375,"x_max":427.953125,"ha":695,"o":"m 323 604 q 361 597 342 604 q 394 578 379 590 q 418 548 409 565 q 427 510 427 531 q 419 473 427 490 q 396 443 411 456 q 363 422 382 430 q 323 415 344 415 q 284 422 303 415 q 251 443 265 430 q 229 473 238 456 q 221 510 221 490 q 229 546 221 529 q 251 576 238 563 q 284 596 265 589 q 323 604 303 604 m 323 170 q 361 163 342 170 q 394 143 379 156 q 418 113 409 130 q 427 75 427 96 q 419 39 427 56 q 397 9 411 22 q 364 -10 383 -3 q 323 -18 345 -18 q 283 -10 301 -18 q 250 9 264 -3 q 229 38 237 21 q 221 75 221 55 q 229 112 221 94 q 251 142 238 129 q 284 163 265 155 q 323 170 303 170 "},"Û":{"x_min":51.546875,"x_max":642.953125,"ha":695,"o":"m 51 0 l 51 0 m 51 865 l 216 865 q 219 862 219 863 q 219 858 219 860 q 218 852 219 855 q 214 845 216 849 q 209 833 212 840 q 206 816 207 826 l 206 304 q 213 223 206 259 q 236 162 220 187 q 280 123 252 137 q 347 109 307 109 q 416 123 388 109 q 460 163 443 137 q 483 225 476 189 q 490 308 490 262 l 490 865 l 642 865 l 642 309 q 621 163 642 225 q 562 60 600 101 q 468 0 523 19 q 345 -19 413 -19 q 218 2 273 -19 q 126 67 163 25 q 70 169 88 109 q 51 305 51 229 l 51 865 m 148 961 l 333 1110 l 376 1110 l 551 963 l 498 901 l 352 992 l 196 905 l 148 961 "},"*":{"x_min":47.46875,"x_max":654.484375,"ha":695,"o":"m 275 729 l 438 729 l 409 515 l 602 602 l 654 483 l 437 416 l 596 226 l 484 140 l 349 344 l 210 139 l 101 226 l 263 415 l 47 482 l 95 608 l 294 515 l 275 729 "},"°":{"x_min":151.25,"x_max":559.53125,"ha":695,"o":"m 355 925 q 435 909 398 925 q 500 866 472 893 q 543 803 527 838 q 559 727 559 767 q 543 652 559 688 q 500 589 527 616 q 435 546 472 562 q 355 530 398 530 q 275 545 312 530 q 210 587 238 560 q 167 650 183 614 q 151 727 151 686 q 167 805 151 769 q 212 868 184 841 q 277 909 240 894 q 355 925 314 925 m 283 729 q 303 667 283 691 q 355 642 322 642 q 408 667 387 642 q 429 729 429 691 q 423 764 429 748 q 408 791 418 779 q 385 809 398 803 q 355 816 371 816 q 303 791 322 816 q 283 729 283 767 "},"V":{"x_min":13.5625,"x_max":691.78125,"ha":695,"o":"m 13 865 l 177 865 l 359 251 l 531 865 l 691 865 l 413 0 l 294 0 l 13 865 "},"å":{"x_min":55.609375,"x_max":613.796875,"ha":695,"o":"m 55 0 l 55 0 m 104 556 q 349 662 204 662 q 460 647 411 662 q 543 598 509 631 q 595 515 577 565 q 613 394 613 464 l 613 0 l 465 0 l 465 58 q 378 3 428 23 q 276 -16 327 -16 q 178 -1 219 -16 q 109 39 136 13 q 68 99 82 65 q 55 172 55 134 q 76 264 55 222 q 139 336 98 305 q 241 383 181 366 q 381 400 302 400 l 463 400 q 434 507 462 474 q 344 540 405 540 q 183 454 265 540 l 104 556 m 411 283 q 310 276 349 284 q 248 252 271 267 q 218 218 226 238 q 209 180 209 199 q 217 149 209 164 q 237 125 224 135 q 267 108 250 114 q 304 101 284 101 q 361 112 336 101 q 406 139 387 124 q 438 172 425 155 q 457 201 451 189 q 465 231 462 211 q 467 282 467 251 l 411 283 m 345 987 q 402 976 375 987 q 448 946 428 965 q 480 903 468 927 q 491 849 491 878 q 480 796 491 821 q 448 752 468 771 q 402 722 428 733 q 345 711 375 711 q 290 722 316 711 q 245 752 264 733 q 214 796 225 771 q 202 849 202 821 q 214 903 202 878 q 245 946 225 927 q 290 976 264 965 q 345 987 316 987 m 302 851 q 315 814 302 829 q 347 800 328 800 q 379 814 366 800 q 392 851 392 829 q 379 888 392 872 q 347 904 366 904 q 315 888 328 904 q 302 851 302 872 "}," ":{"x_min":0,"x_max":0,"ha":695},"0":{"x_min":47.46875,"x_max":649.734375,"ha":695,"o":"m 556 760 q 624 616 599 704 q 649 419 649 528 q 624 222 649 305 q 557 83 599 138 q 461 0 516 27 q 347 -26 406 -26 q 230 6 285 -26 q 135 99 176 39 q 71 242 94 158 q 47 426 47 325 q 71 611 47 527 q 137 756 96 695 q 232 850 178 816 q 347 883 286 883 q 411 875 381 883 q 465 852 440 868 q 513 814 491 836 q 556 760 535 791 m 455 662 q 411 725 438 702 q 348 748 383 748 q 290 726 318 748 q 242 664 263 704 q 208 568 221 624 q 196 444 196 512 q 196 417 196 432 q 198 386 197 402 q 200 357 199 371 q 202 333 201 343 l 455 662 m 241 198 q 286 135 258 158 q 348 112 314 112 q 406 134 379 112 q 455 196 434 156 q 488 291 476 236 q 501 416 501 347 q 500 443 501 428 q 498 474 499 459 q 496 503 497 489 q 494 527 495 517 l 241 198 "},"”":{"x_min":67.828125,"x_max":596.15625,"ha":695,"o":"m 309 772 q 269 648 309 716 q 145 495 228 580 l 67 567 q 103 604 86 585 q 132 641 120 623 q 151 675 144 659 q 158 702 158 691 q 151 716 158 710 q 137 730 145 722 q 105 762 120 745 q 91 803 91 779 q 99 840 91 823 q 120 871 106 858 q 153 892 134 885 q 196 900 172 900 q 238 890 217 900 q 275 864 259 881 q 300 823 290 847 q 309 772 309 800 m 596 772 q 555 648 596 716 q 432 495 514 580 l 354 567 q 389 604 373 585 q 418 641 406 623 q 437 675 430 659 q 444 702 444 691 q 438 716 444 710 q 423 730 432 722 q 392 762 406 745 q 377 803 377 779 q 385 840 377 823 q 406 871 392 858 q 439 892 419 885 q 482 900 458 900 q 524 890 503 900 q 561 864 545 881 q 586 823 577 847 q 596 772 596 800 "},"¾":{"x_min":0,"x_max":685,"ha":695,"o":"m 179 955 q 242 945 212 955 q 293 916 271 934 q 327 874 315 898 q 340 823 340 850 q 336 800 340 812 q 326 778 333 789 q 310 759 319 768 q 290 746 301 750 q 338 706 318 731 q 358 653 358 681 q 343 596 358 621 q 302 551 328 570 q 244 522 277 533 q 174 512 211 512 q 82 534 124 512 q 0 600 40 556 l 79 687 q 93 669 89 678 q 101 649 96 659 q 111 636 104 643 q 127 623 118 629 q 149 613 137 617 q 176 609 162 609 q 223 619 203 609 q 242 653 242 630 q 227 685 242 674 q 176 695 212 695 q 170 695 172 695 q 162 695 167 695 q 148 694 157 695 q 123 691 139 693 l 123 794 q 146 786 136 788 q 173 784 155 784 q 214 795 202 784 q 226 817 226 805 q 212 847 226 833 q 174 861 198 861 q 128 847 151 861 q 79 801 105 834 l 15 870 q 90 934 50 912 q 179 955 130 955 m 531 348 l 619 348 l 619 91 l 685 91 l 685 5 l 619 5 l 619 -96 l 499 -96 l 499 5 l 311 5 l 311 67 l 531 348 m 501 174 l 433 88 l 501 88 l 501 174 m 88 -6 l 519 926 l 640 864 l 210 -65 l 88 -6 "},"@":{"x_min":34.59375,"x_max":657.203125,"ha":695,"o":"m 622 47 q 521 -5 573 9 q 408 -19 469 -19 q 264 9 332 -19 q 145 96 196 38 q 64 240 94 153 q 34 440 34 326 q 64 637 34 553 q 142 777 94 721 q 252 860 191 832 q 377 887 314 887 q 493 866 441 887 q 581 800 544 845 q 637 688 617 756 q 657 526 657 619 l 657 226 l 530 226 l 530 269 q 481 231 512 247 q 415 216 451 216 q 340 230 375 216 q 281 271 306 245 q 241 331 255 297 q 226 408 226 366 q 243 500 226 459 q 296 570 260 541 q 387 614 332 598 q 520 630 443 629 q 505 690 517 663 q 475 736 494 717 q 429 767 455 756 q 373 777 404 777 q 296 757 334 777 q 229 694 259 736 q 181 590 199 653 q 162 441 162 526 q 183 293 162 358 q 239 183 204 227 q 320 115 274 139 q 416 92 366 92 q 489 104 450 92 q 567 149 528 116 l 622 47 m 526 526 q 451 516 482 525 q 399 492 419 507 q 369 458 379 477 q 359 417 359 438 q 379 351 359 376 q 432 326 399 326 q 478 338 460 326 q 507 374 496 349 q 522 437 518 399 q 526 526 526 474 "},"ö":{"x_min":40.015625,"x_max":654.484375,"ha":695,"o":"m 40 0 l 40 0 m 352 662 q 470 639 415 662 q 566 572 525 616 q 631 465 607 529 q 654 320 654 401 q 631 176 654 240 q 568 68 608 112 q 472 1 527 24 q 351 -22 416 -22 q 229 2 286 -22 q 130 73 172 27 q 64 181 88 118 q 40 318 40 243 q 64 455 40 392 q 132 564 89 518 q 231 636 174 610 q 352 662 288 662 m 499 318 q 488 411 499 370 q 457 480 477 452 q 408 523 436 508 q 348 537 381 537 q 287 523 315 537 q 241 480 260 508 q 210 413 221 453 q 200 323 200 373 q 210 232 200 273 q 240 164 221 192 q 288 120 260 135 q 351 104 316 104 q 459 159 419 104 q 499 318 499 214 m 221 940 q 256 933 239 940 q 287 915 274 927 q 309 886 301 903 q 318 849 318 870 q 310 815 318 831 q 289 787 302 799 q 258 768 276 775 q 221 760 240 760 q 183 768 201 760 q 152 787 166 775 q 132 815 139 799 q 124 849 124 831 q 132 884 124 868 q 152 913 139 900 q 183 932 166 925 q 221 940 201 940 m 476 940 q 511 933 493 940 q 541 915 528 927 q 563 886 555 903 q 572 849 572 870 q 564 815 572 831 q 544 787 557 799 q 513 768 531 775 q 476 760 495 760 q 439 767 456 760 q 408 786 421 774 q 387 815 395 798 q 380 849 380 831 q 387 885 380 868 q 408 913 395 901 q 439 932 421 925 q 476 940 456 940 "},"i":{"x_min":133.609375,"x_max":587.34375,"ha":695,"o":"m 369 938 q 406 931 389 938 q 437 912 424 924 q 458 884 451 900 q 466 849 466 868 q 458 815 466 831 q 437 786 451 798 q 406 767 424 774 q 369 760 389 760 q 331 767 349 760 q 300 786 314 774 q 279 815 287 798 q 271 849 271 831 q 278 882 271 866 q 296 910 284 897 q 326 930 308 923 q 369 938 345 938 m 140 648 l 444 648 l 444 120 l 587 120 l 587 0 l 133 0 l 133 120 l 290 120 l 290 527 l 140 527 l 140 648 "},"Õ":{"x_min":23.734375,"x_max":670.765625,"ha":695,"o":"m 23 0 l 23 0 m 348 -25 q 211 9 271 -25 q 109 104 151 43 q 45 250 67 166 q 23 434 23 335 q 46 618 23 535 q 111 761 69 701 q 214 854 153 821 q 349 887 274 887 q 473 859 415 887 q 575 775 531 832 q 644 634 619 719 q 670 433 670 548 q 657 283 670 349 q 622 166 644 217 q 569 79 600 115 q 503 19 539 42 q 427 -14 467 -3 q 348 -25 388 -25 m 184 442 q 196 302 184 363 q 230 200 208 241 q 283 137 252 158 q 349 116 313 116 q 409 132 381 116 q 460 185 438 147 q 495 283 482 222 q 508 436 508 345 q 494 582 508 522 q 457 679 480 642 q 407 732 435 716 q 351 748 379 748 q 287 733 318 748 q 234 683 257 718 q 198 589 211 648 q 184 442 184 531 m 119 992 q 294 1131 204 1131 q 347 1117 323 1131 q 391 1084 371 1103 q 403 1072 396 1079 q 416 1060 409 1066 q 431 1049 423 1053 q 447 1045 439 1045 q 466 1052 457 1045 q 485 1070 476 1059 q 503 1095 494 1081 q 522 1125 512 1109 l 598 1039 q 557 988 576 1010 q 521 952 538 967 q 488 930 504 937 q 452 922 471 922 q 404 933 426 922 q 362 961 382 944 q 348 975 356 966 q 331 992 340 984 q 312 1007 322 1001 q 291 1013 302 1013 q 254 991 270 1013 q 215 923 238 968 l 119 992 "},"þ":{"x_min":69.171875,"x_max":648.375,"ha":695,"o":"m 223 331 q 232 228 223 271 q 257 159 241 186 q 297 120 274 132 q 349 108 320 108 q 398 119 373 108 q 444 154 423 130 q 478 218 465 179 q 491 316 491 258 q 478 422 491 378 q 440 494 465 467 q 399 525 421 515 q 345 536 378 536 q 284 519 307 536 q 247 474 260 503 q 228 409 233 446 q 223 331 223 372 m 69 937 l 244 937 q 241 924 244 929 q 235 915 238 919 q 229 908 232 912 q 225 897 225 904 l 225 592 q 295 644 255 626 q 375 662 334 662 q 479 642 430 662 q 566 581 529 621 q 626 479 604 540 q 648 337 648 419 q 625 180 648 248 q 564 68 602 113 q 478 1 526 23 q 376 -21 429 -21 q 338 -16 358 -21 q 298 -4 318 -12 q 259 15 278 3 q 226 42 240 27 l 226 -231 l 69 -231 l 69 937 "},"]":{"x_min":99.703125,"x_max":529.015625,"ha":695,"o":"m 529 929 l 529 -124 l 99 -124 l 99 0 l 383 0 l 383 800 l 101 800 l 101 929 l 529 929 "},"m":{"x_min":44.765625,"x_max":663.984375,"ha":695,"o":"m 44 0 l 44 655 l 177 655 l 177 615 q 239 661 208 647 q 297 676 269 676 q 324 672 309 676 q 353 659 339 668 q 379 635 366 650 q 402 598 392 620 q 462 656 426 636 q 534 676 498 676 q 596 663 571 676 q 636 626 621 651 q 657 564 651 601 q 663 479 663 527 l 663 0 l 519 0 l 519 453 q 510 530 519 507 q 478 554 501 554 q 425 426 425 554 l 425 0 l 282 0 l 282 445 q 278 501 282 480 q 268 534 274 522 q 256 550 263 545 q 241 554 248 554 q 218 548 228 554 q 200 528 207 542 q 188 491 192 514 q 184 430 184 467 l 184 0 l 44 0 "},"8":{"x_min":58.328125,"x_max":637.53125,"ha":695,"o":"m 608 662 q 598 605 608 634 q 571 552 588 577 q 531 503 554 526 q 482 463 507 480 q 544 419 516 444 q 593 363 573 394 q 626 299 614 333 q 637 229 637 265 q 615 128 637 174 q 553 47 592 81 q 461 -6 514 12 q 347 -26 408 -26 q 232 -6 285 -26 q 141 46 179 12 q 80 126 102 80 q 58 225 58 172 q 69 292 58 259 q 102 356 81 326 q 153 413 124 387 q 218 459 182 440 q 170 498 192 476 q 132 545 148 520 q 107 598 116 571 q 98 654 98 626 q 118 744 98 701 q 173 818 139 787 q 255 869 208 850 q 355 887 302 887 q 455 869 409 887 q 535 820 501 851 q 589 749 569 790 q 608 662 608 708 m 473 230 q 463 279 473 255 q 434 323 453 303 q 390 361 416 344 q 331 389 364 378 q 288 361 307 377 q 253 324 268 344 q 230 281 238 304 q 222 234 222 259 q 232 188 222 210 q 260 149 242 166 q 300 123 277 133 q 349 113 324 113 q 399 123 377 113 q 438 147 422 132 q 464 184 455 163 q 473 230 473 206 m 255 661 q 264 620 255 639 q 289 584 274 600 q 325 553 305 567 q 369 527 346 539 q 428 585 404 551 q 451 658 451 620 q 443 693 451 676 q 422 723 436 710 q 390 744 408 736 q 351 751 372 751 q 312 744 330 751 q 282 724 295 737 q 262 695 269 712 q 255 661 255 679 "},"R":{"x_min":65.109375,"x_max":678.90625,"ha":695,"o":"m 65 865 l 339 865 q 477 846 419 865 q 571 794 534 828 q 624 712 607 760 q 641 607 641 665 q 629 535 641 571 q 596 468 617 499 q 544 412 575 436 q 476 376 513 388 l 678 0 l 503 0 l 324 358 l 223 358 l 223 0 l 65 0 l 65 865 m 223 727 l 223 490 l 348 490 q 408 498 383 490 q 450 522 434 507 q 474 559 466 537 q 482 607 482 581 q 450 697 482 668 q 348 727 418 727 l 223 727 "},"á":{"x_min":55.609375,"x_max":613.796875,"ha":695,"o":"m 55 0 l 55 0 m 104 556 q 349 662 204 662 q 460 647 411 662 q 543 598 509 631 q 595 515 577 565 q 613 394 613 464 l 613 0 l 465 0 l 465 58 q 378 3 428 23 q 276 -16 327 -16 q 178 -1 219 -16 q 109 39 136 13 q 68 99 82 65 q 55 172 55 134 q 76 264 55 222 q 139 336 98 305 q 241 383 181 366 q 381 400 302 400 l 463 400 q 434 507 462 474 q 344 540 405 540 q 183 454 265 540 l 104 556 m 411 283 q 310 276 349 284 q 248 252 271 267 q 218 218 226 238 q 209 180 209 199 q 217 149 209 164 q 237 125 224 135 q 267 108 250 114 q 304 101 284 101 q 361 112 336 101 q 406 139 387 124 q 438 172 425 155 q 457 201 451 189 q 465 231 462 211 q 467 282 467 251 l 411 283 m 387 991 l 499 914 l 354 718 l 276 763 l 387 991 "},"×":{"x_min":95.625,"x_max":617.859375,"ha":695,"o":"m 514 734 l 617 640 l 453 467 l 613 297 l 514 196 l 352 366 l 193 202 l 95 299 l 257 466 l 95 637 l 197 735 l 355 569 l 514 734 "},"o":{"x_min":40.015625,"x_max":654.484375,"ha":695,"o":"m 352 662 q 470 639 415 662 q 566 572 525 616 q 631 465 607 529 q 654 320 654 401 q 631 176 654 240 q 568 68 608 112 q 472 1 527 24 q 351 -22 416 -22 q 229 2 286 -22 q 130 73 172 27 q 64 181 88 118 q 40 318 40 243 q 64 455 40 392 q 132 564 89 518 q 231 636 174 610 q 352 662 288 662 m 499 318 q 488 411 499 370 q 457 480 477 452 q 408 523 436 508 q 348 537 381 537 q 287 523 315 537 q 241 480 260 508 q 210 413 221 453 q 200 323 200 373 q 210 232 200 273 q 240 164 221 192 q 288 120 260 135 q 351 104 316 104 q 459 159 419 104 q 499 318 499 214 "},"5":{"x_min":73.921875,"x_max":640.25,"ha":695,"o":"m 148 865 l 613 865 l 613 733 l 284 733 l 273 565 q 321 576 297 573 q 369 580 344 580 q 481 560 431 580 q 567 501 531 539 q 621 406 602 462 q 640 279 640 350 q 620 155 640 211 q 562 58 600 99 q 471 -4 524 18 q 352 -26 418 -26 q 269 -17 309 -26 q 193 10 229 -8 q 128 61 158 30 q 73 137 97 92 l 197 230 q 206 222 203 227 q 211 211 209 217 q 215 199 213 205 q 218 187 216 193 q 264 133 232 155 q 347 111 297 111 q 401 121 376 111 q 445 153 427 132 q 475 206 464 174 q 486 280 486 238 q 476 353 486 321 q 448 407 466 385 q 406 440 431 429 q 352 451 382 451 q 278 431 310 451 q 216 368 246 411 l 116 411 l 148 865 "},"õ":{"x_min":40.015625,"x_max":654.484375,"ha":695,"o":"m 40 0 l 40 0 m 352 662 q 470 639 415 662 q 566 572 525 616 q 631 465 607 529 q 654 320 654 401 q 631 176 654 240 q 568 68 608 112 q 472 1 527 24 q 351 -22 416 -22 q 229 2 286 -22 q 130 73 172 27 q 64 181 88 118 q 40 318 40 243 q 64 455 40 392 q 132 564 89 518 q 231 636 174 610 q 352 662 288 662 m 499 318 q 488 411 499 370 q 457 480 477 452 q 408 523 436 508 q 348 537 381 537 q 287 523 315 537 q 241 480 260 508 q 210 413 221 453 q 200 323 200 373 q 210 232 200 273 q 240 164 221 192 q 288 120 260 135 q 351 104 316 104 q 459 159 419 104 q 499 318 499 214 m 119 825 q 294 963 204 963 q 348 949 324 963 q 392 916 372 935 q 403 904 396 911 q 416 891 409 897 q 431 881 423 885 q 446 877 438 877 q 466 884 457 877 q 485 902 476 891 q 503 927 494 913 q 522 956 512 942 l 598 870 q 557 821 576 843 q 522 784 539 799 q 488 761 505 769 q 453 754 471 754 q 404 765 426 754 q 362 792 382 776 q 348 807 356 798 q 331 824 340 815 q 311 839 322 833 q 291 845 301 845 q 254 823 270 845 q 215 755 238 800 l 119 825 "},"7":{"x_min":91.5625,"x_max":612.4375,"ha":695,"o":"m 612 786 q 460 403 531 601 q 326 0 389 205 l 158 0 q 285 368 219 184 q 425 729 351 552 l 91 729 l 91 865 l 612 865 l 612 786 "},"K":{"x_min":59.6875,"x_max":702.640625,"ha":695,"o":"m 219 0 l 59 0 l 59 865 l 229 865 q 231 858 231 862 q 230 852 231 855 q 226 845 228 849 q 222 833 224 840 q 219 816 220 826 l 219 534 l 514 876 q 558 868 537 870 q 594 865 579 865 l 690 865 l 368 497 l 702 1 l 514 -6 l 257 394 l 219 354 l 219 0 "},",":{"x_min":206.859375,"x_max":448.984375,"ha":695,"o":"m 448 41 q 408 -81 448 -13 q 284 -234 367 -149 l 206 -164 q 242 -126 225 -145 q 271 -88 259 -107 q 290 -54 283 -70 q 297 -27 297 -38 q 290 -13 297 -20 q 276 0 284 -7 q 244 31 259 14 q 230 71 230 48 q 238 109 230 92 q 259 140 245 127 q 291 161 272 153 q 335 169 311 169 q 377 160 356 169 q 414 133 398 150 q 439 93 430 116 q 448 41 448 69 "},"d":{"x_min":41.375,"x_max":641.59375,"ha":695,"o":"m 622 78 q 626 41 622 61 q 634 0 629 21 l 487 0 q 476 18 478 6 q 473 40 473 30 l 473 59 q 444 25 462 40 q 405 0 426 10 q 361 -15 384 -10 q 318 -21 339 -21 q 210 0 261 -21 q 123 62 160 20 q 63 166 85 103 q 41 314 41 229 q 63 460 41 396 q 124 570 86 525 q 211 638 162 615 q 316 662 261 662 q 356 657 335 662 q 396 644 376 653 q 434 623 416 636 q 466 597 452 611 l 466 937 l 641 937 q 638 925 641 929 q 633 916 636 920 q 626 907 630 912 q 622 897 623 903 l 622 78 m 467 331 q 462 409 467 372 q 443 474 457 446 q 405 519 430 503 q 344 536 381 536 q 290 525 311 536 q 250 494 269 515 q 198 316 198 439 q 211 218 198 258 q 246 154 225 179 q 291 119 267 130 q 340 108 316 108 q 393 120 369 108 q 433 159 416 132 q 458 228 449 186 q 467 331 467 271 "},"¨":{"x_min":124.796875,"x_max":572.421875,"ha":695,"o":"m 221 940 q 256 933 239 940 q 287 915 274 927 q 309 886 301 903 q 318 849 318 870 q 310 815 318 831 q 289 787 302 799 q 258 768 276 775 q 221 760 240 760 q 183 768 201 760 q 152 787 166 775 q 132 815 139 799 q 124 849 124 831 q 132 884 124 868 q 152 913 139 900 q 183 932 166 925 q 221 940 201 940 m 476 940 q 511 933 493 940 q 541 915 528 927 q 563 886 555 903 q 572 849 572 870 q 564 815 572 831 q 544 787 557 799 q 513 768 531 775 q 476 760 495 760 q 439 767 456 760 q 408 786 421 774 q 387 815 395 798 q 380 849 380 831 q 387 885 380 868 q 408 913 395 901 q 439 932 421 925 q 476 940 456 940 "},"Ô":{"x_min":23.734375,"x_max":670.765625,"ha":695,"o":"m 23 0 l 23 0 m 348 -25 q 211 9 271 -25 q 109 104 151 43 q 45 250 67 166 q 23 434 23 335 q 46 618 23 535 q 111 761 69 701 q 214 854 153 821 q 349 887 274 887 q 473 859 415 887 q 575 775 531 832 q 644 634 619 719 q 670 433 670 548 q 657 283 670 349 q 622 166 644 217 q 569 79 600 115 q 503 19 539 42 q 427 -14 467 -3 q 348 -25 388 -25 m 184 442 q 196 302 184 363 q 230 200 208 241 q 283 137 252 158 q 349 116 313 116 q 409 132 381 116 q 460 185 438 147 q 495 283 482 222 q 508 436 508 345 q 494 582 508 522 q 457 679 480 642 q 407 732 435 716 q 351 748 379 748 q 287 733 318 748 q 234 683 257 718 q 198 589 211 648 q 184 442 184 531 m 148 961 l 333 1110 l 376 1110 l 551 963 l 498 901 l 352 992 l 196 905 l 148 961 "},"E":{"x_min":78,"x_max":641.59375,"ha":695,"o":"m 78 865 l 641 865 l 641 731 l 229 731 l 229 518 l 571 518 l 571 381 l 229 381 l 229 133 l 638 133 l 638 0 l 78 0 l 78 865 "},"Y":{"x_min":12.203125,"x_max":690.4375,"ha":695,"o":"m 12 865 l 185 865 l 364 515 l 522 865 l 690 865 l 442 340 l 442 0 l 279 0 l 279 341 l 12 865 "},"\"":{"x_min":123.4375,"x_max":580.5625,"ha":695,"o":"m 404 844 q 411 888 404 869 q 430 918 418 906 q 458 937 442 931 q 491 943 474 943 q 524 937 508 943 q 553 917 541 931 q 573 884 565 904 q 580 837 580 864 q 568 773 580 817 q 534 668 556 729 q 525 643 531 657 q 515 614 520 629 q 505 585 510 599 q 495 560 499 571 l 365 591 l 401 704 q 409 735 406 720 q 412 763 412 750 l 404 844 m 162 844 q 169 888 162 869 q 188 918 177 906 q 216 937 200 931 q 250 943 232 943 q 283 937 267 943 q 311 917 299 931 q 331 884 324 904 q 339 837 339 864 q 327 772 339 814 q 294 668 316 729 l 255 560 l 123 591 l 160 704 q 168 735 165 720 q 172 763 172 750 l 162 844 "},"‹":{"x_min":169.5625,"x_max":495.78125,"ha":695,"o":"m 169 356 l 397 577 l 489 483 l 330 331 l 495 153 l 401 59 l 169 309 l 169 356 "},"ê":{"x_min":51.546875,"x_max":634.8125,"ha":695,"o":"m 51 0 l 51 0 m 358 662 q 465 642 415 662 q 553 582 516 621 q 613 483 591 542 q 634 345 634 423 q 633 312 634 328 q 630 280 632 296 l 205 280 q 227 200 210 233 q 266 144 243 166 q 317 112 289 122 q 375 101 345 101 q 461 121 419 101 q 534 180 503 141 l 620 94 q 375 -22 522 -22 q 245 0 305 -22 q 143 67 186 23 q 75 173 100 110 q 51 315 51 236 q 74 460 51 396 q 138 569 97 524 q 235 638 179 614 q 358 662 291 662 m 479 394 q 470 452 479 425 q 444 500 461 480 q 403 533 427 521 q 349 545 379 545 q 297 535 321 545 q 255 504 273 524 q 226 457 237 484 q 210 394 215 429 l 479 394 m 172 766 l 331 967 l 376 967 l 536 765 l 455 705 l 349 828 l 238 706 l 172 766 "},"Ï":{"x_min":101.734375,"x_max":600.234375,"ha":695,"o":"m 101 0 l 101 0 m 109 865 l 592 865 l 592 735 l 425 735 l 425 127 l 600 127 l 600 0 l 101 0 l 101 128 l 269 128 l 269 735 l 109 735 l 109 865 m 210 1127 q 249 1120 231 1127 q 281 1099 267 1112 q 301 1070 294 1087 q 308 1037 308 1054 q 300 1003 308 1019 q 279 974 292 986 q 248 955 266 963 q 210 948 230 948 q 173 955 191 948 q 143 974 155 963 q 122 1003 130 986 q 115 1037 115 1019 q 122 1072 115 1056 q 143 1101 130 1088 q 173 1120 155 1113 q 210 1127 191 1127 m 466 1127 q 505 1120 488 1127 q 536 1099 523 1112 q 555 1070 548 1086 q 562 1037 562 1053 q 554 1003 562 1019 q 534 974 547 986 q 503 955 521 963 q 466 948 486 948 q 429 955 446 948 q 398 974 411 962 q 378 1002 385 986 q 370 1037 370 1018 q 378 1072 370 1056 q 398 1101 385 1089 q 429 1120 411 1113 q 466 1127 446 1127 "},"„":{"x_min":67.828125,"x_max":596.15625,"ha":695,"o":"m 309 41 q 269 -81 309 -13 q 145 -234 228 -149 l 67 -164 q 103 -126 86 -145 q 132 -88 120 -107 q 151 -54 144 -70 q 158 -27 158 -38 q 151 -13 158 -20 q 137 0 145 -7 q 105 31 120 14 q 91 71 91 48 q 99 109 91 92 q 120 140 106 127 q 153 161 134 153 q 196 169 172 169 q 238 160 217 169 q 275 133 259 150 q 300 93 290 116 q 309 41 309 69 m 596 41 q 555 -81 596 -13 q 432 -234 514 -149 l 354 -164 q 389 -126 373 -145 q 418 -88 406 -107 q 437 -54 430 -70 q 444 -27 444 -38 q 438 -13 444 -20 q 423 0 432 -7 q 392 31 406 14 q 377 71 377 48 q 385 109 377 92 q 406 140 392 127 q 439 161 419 153 q 482 169 458 169 q 524 160 503 169 q 561 133 545 150 q 586 93 577 116 q 596 41 596 69 "},"Â":{"x_min":0,"x_max":695.859375,"ha":695,"o":"m 0 0 l 0 0 m 0 0 l 288 880 l 379 880 l 695 0 l 533 0 l 454 223 l 227 223 l 160 0 l 0 0 m 426 331 l 336 619 l 251 331 l 426 331 m 133 961 l 318 1110 l 361 1110 l 536 963 l 483 901 l 337 992 l 181 905 l 133 961 "},"Í":{"x_min":101.734375,"x_max":600.234375,"ha":695,"o":"m 101 0 l 101 0 m 109 865 l 592 865 l 592 735 l 425 735 l 425 127 l 600 127 l 600 0 l 101 0 l 101 128 l 269 128 l 269 735 l 109 735 l 109 865 m 518 995 l 267 908 l 230 976 l 442 1133 l 518 995 "},"´":{"x_min":276.71875,"x_max":499.84375,"ha":695,"o":"m 387 991 l 499 914 l 354 718 l 276 763 l 387 991 "},"ì":{"x_min":123.4375,"x_max":576.484375,"ha":695,"o":"m 123 0 l 123 0 m 130 648 l 434 648 l 434 124 l 576 124 l 576 0 l 123 0 l 123 124 l 279 124 l 279 523 l 130 523 l 130 648 m 397 763 l 319 718 l 173 914 l 286 991 l 397 763 "},"±":{"x_min":52.90625,"x_max":642.953125,"ha":695,"o":"m 54 152 l 642 152 l 642 22 l 54 22 l 54 152 m 279 800 l 423 800 l 423 580 l 641 580 l 641 451 l 423 451 l 423 212 l 279 212 l 279 451 l 52 451 l 52 580 l 279 580 l 279 800 "},"Ú":{"x_min":51.546875,"x_max":642.953125,"ha":695,"o":"m 51 0 l 51 0 m 51 865 l 216 865 q 219 862 219 863 q 219 858 219 860 q 218 852 219 855 q 214 845 216 849 q 209 833 212 840 q 206 816 207 826 l 206 304 q 213 223 206 259 q 236 162 220 187 q 280 123 252 137 q 347 109 307 109 q 416 123 388 109 q 460 163 443 137 q 483 225 476 189 q 490 308 490 262 l 490 865 l 642 865 l 642 309 q 621 163 642 225 q 562 60 600 101 q 468 0 523 19 q 345 -19 413 -19 q 218 2 273 -19 q 126 67 163 25 q 70 169 88 109 q 51 305 51 229 l 51 865 m 518 995 l 267 908 l 230 976 l 442 1133 l 518 995 "},"|":{"x_min":273.328125,"x_max":422.53125,"ha":695,"o":"m 273 905 l 422 905 l 422 -209 l 273 -209 l 273 905 "},"§":{"x_min":73.921875,"x_max":592.765625,"ha":695,"o":"m 478 691 q 461 701 465 694 q 455 729 458 708 q 443 761 452 746 q 420 788 434 776 q 390 806 407 799 q 354 813 373 813 q 321 807 336 813 q 295 790 306 800 q 278 764 284 779 q 271 734 271 750 q 280 699 271 714 q 308 670 289 683 q 356 643 326 656 q 425 616 385 630 q 483 589 453 606 q 537 549 513 573 q 577 494 561 524 q 592 426 592 463 q 585 384 592 404 q 567 345 579 363 q 539 312 555 326 q 503 288 522 297 q 560 224 540 260 q 580 147 580 187 q 562 57 580 99 q 510 -14 543 16 q 431 -62 477 -44 q 330 -79 385 -79 q 188 -44 254 -79 q 73 58 122 -9 l 169 170 q 183 166 179 170 q 191 148 187 161 q 208 118 196 134 q 240 88 221 101 q 280 65 258 74 q 326 56 303 56 q 369 63 350 56 q 401 81 388 70 q 420 107 413 92 q 426 137 426 122 q 420 168 426 154 q 400 195 415 183 q 360 218 385 207 q 298 241 335 229 q 204 279 243 258 q 141 325 166 300 q 106 378 117 349 q 95 440 95 407 q 103 481 95 459 q 125 523 111 503 q 158 559 139 543 q 200 585 177 576 q 165 613 181 596 q 138 648 149 629 q 121 687 127 666 q 115 727 115 708 q 132 807 115 769 q 182 875 150 846 q 258 922 214 904 q 355 940 302 940 q 428 929 394 940 q 493 898 463 918 q 548 852 523 879 q 592 791 573 824 l 478 691 m 279 527 q 268 517 273 524 q 259 502 263 510 q 254 483 256 493 q 252 465 252 474 q 280 405 252 432 q 362 360 307 378 q 379 356 369 358 q 413 345 389 354 q 428 370 423 354 q 433 405 433 387 q 407 465 433 438 q 323 512 381 493 l 279 527 "},"Ý":{"x_min":12.203125,"x_max":690.4375,"ha":695,"o":"m 12 0 l 12 0 m 12 865 l 185 865 l 364 515 l 522 865 l 690 865 l 442 340 l 442 0 l 279 0 l 279 341 l 12 865 m 518 995 l 267 908 l 230 976 l 442 1133 l 518 995 "},"b":{"x_min":69.171875,"x_max":648.375,"ha":695,"o":"m 69 937 l 244 937 q 241 924 244 929 q 235 915 238 919 q 229 908 232 912 q 225 897 225 904 l 225 592 q 295 644 255 626 q 375 662 334 662 q 479 642 430 662 q 566 581 529 621 q 626 479 604 540 q 648 337 648 419 q 624 180 648 248 q 560 68 600 113 q 471 1 521 23 q 369 -21 421 -21 q 276 0 320 -21 q 198 62 231 21 l 177 0 l 69 0 l 69 937 m 223 331 q 232 228 223 271 q 257 159 241 186 q 297 120 274 132 q 349 108 320 108 q 398 119 373 108 q 444 154 423 130 q 478 218 465 179 q 491 316 491 258 q 478 422 491 378 q 440 494 465 467 q 399 525 421 515 q 345 536 378 536 q 284 519 307 536 q 247 474 260 503 q 228 409 233 446 q 223 331 223 372 "},"q":{"x_min":40.015625,"x_max":620.578125,"ha":695,"o":"m 315 662 q 357 657 335 662 q 400 644 379 653 q 439 623 421 635 q 470 596 458 611 l 470 648 l 620 648 l 620 -231 l 465 -231 l 465 44 q 433 16 451 29 q 395 -4 415 4 q 354 -17 375 -13 q 314 -22 333 -22 q 207 3 257 -22 q 120 74 157 28 q 61 184 83 120 q 40 324 40 248 q 61 463 40 401 q 118 570 82 526 q 205 638 155 614 q 315 662 256 662 m 330 536 q 279 522 303 536 q 236 482 255 508 q 207 417 218 455 q 197 330 197 379 q 208 240 197 280 q 238 170 219 199 q 282 125 257 141 q 336 109 307 109 q 429 163 396 109 q 462 326 462 217 q 453 421 462 381 q 426 487 444 461 q 385 524 409 512 q 330 536 360 536 "},"Ö":{"x_min":23.734375,"x_max":670.765625,"ha":695,"o":"m 23 0 l 23 0 m 348 -25 q 211 9 271 -25 q 109 104 151 43 q 45 250 67 166 q 23 434 23 335 q 46 618 23 535 q 111 761 69 701 q 214 854 153 821 q 349 887 274 887 q 473 859 415 887 q 575 775 531 832 q 644 634 619 719 q 670 433 670 548 q 657 283 670 349 q 622 166 644 217 q 569 79 600 115 q 503 19 539 42 q 427 -14 467 -3 q 348 -25 388 -25 m 184 442 q 196 302 184 363 q 230 200 208 241 q 283 137 252 158 q 349 116 313 116 q 409 132 381 116 q 460 185 438 147 q 495 283 482 222 q 508 436 508 345 q 494 582 508 522 q 457 679 480 642 q 407 732 435 716 q 351 748 379 748 q 287 733 318 748 q 234 683 257 718 q 198 589 211 648 q 184 442 184 531 m 214 1127 q 253 1120 235 1127 q 285 1099 271 1112 q 305 1070 298 1087 q 312 1037 312 1054 q 304 1003 312 1019 q 283 974 296 986 q 252 955 270 963 q 214 948 234 948 q 177 955 195 948 q 147 974 159 963 q 126 1003 134 986 q 119 1037 119 1019 q 126 1072 119 1056 q 147 1101 134 1088 q 177 1120 159 1113 q 214 1127 195 1127 m 470 1127 q 509 1120 492 1127 q 540 1099 527 1112 q 559 1070 552 1086 q 566 1037 566 1053 q 558 1003 566 1019 q 538 974 551 986 q 507 955 525 963 q 470 948 490 948 q 433 955 450 948 q 402 974 415 962 q 382 1002 389 986 q 374 1037 374 1018 q 382 1072 374 1056 q 402 1101 389 1089 q 433 1120 415 1113 q 470 1127 450 1127 "},"z":{"x_min":59.6875,"x_max":634.8125,"ha":695,"o":"m 86 634 l 604 634 l 604 537 l 271 130 l 567 130 q 585 134 577 131 q 601 142 594 138 q 617 148 609 145 q 634 151 624 151 l 634 0 l 59 0 l 59 96 l 396 502 l 86 502 l 86 634 "},"ã":{"x_min":55.609375,"x_max":613.796875,"ha":695,"o":"m 55 0 l 55 0 m 104 556 q 349 662 204 662 q 460 647 411 662 q 543 598 509 631 q 595 515 577 565 q 613 394 613 464 l 613 0 l 465 0 l 465 58 q 378 3 428 23 q 276 -16 327 -16 q 178 -1 219 -16 q 109 39 136 13 q 68 99 82 65 q 55 172 55 134 q 76 264 55 222 q 139 336 98 305 q 241 383 181 366 q 381 400 302 400 l 463 400 q 434 507 462 474 q 344 540 405 540 q 183 454 265 540 l 104 556 m 411 283 q 310 276 349 284 q 248 252 271 267 q 218 218 226 238 q 209 180 209 199 q 217 149 209 164 q 237 125 224 135 q 267 108 250 114 q 304 101 284 101 q 361 112 336 101 q 406 139 387 124 q 438 172 425 155 q 457 201 451 189 q 465 231 462 211 q 467 282 467 251 l 411 283 m 131 825 q 306 963 216 963 q 360 949 336 963 q 404 916 384 935 q 415 904 408 911 q 428 891 421 897 q 443 881 435 885 q 458 877 450 877 q 478 884 469 877 q 497 902 488 891 q 515 927 506 913 q 534 956 524 942 l 610 870 q 569 821 588 843 q 534 784 551 799 q 500 761 517 769 q 465 754 483 754 q 416 765 438 754 q 374 792 394 776 q 360 807 368 798 q 343 824 352 815 q 323 839 334 833 q 303 845 313 845 q 266 823 282 845 q 227 755 250 800 l 131 825 "},"æ":{"x_min":2.71875,"x_max":694.5,"ha":695,"o":"m 23 571 q 106 639 59 617 q 209 661 154 661 q 252 654 230 661 q 294 637 274 648 q 330 612 314 626 q 359 581 347 597 q 384 612 370 598 q 416 637 399 627 q 452 654 433 648 q 490 661 470 661 q 578 640 541 661 q 639 583 615 620 q 674 493 663 545 q 686 376 686 440 l 686 308 l 411 297 l 411 247 q 418 186 411 213 q 440 138 425 158 q 474 107 454 118 q 520 96 495 96 q 617 168 575 96 l 694 73 q 612 6 657 29 q 514 -16 566 -16 q 424 5 465 -16 q 355 67 383 28 q 326 33 343 48 q 289 6 309 17 q 247 -10 269 -4 q 202 -16 225 -16 q 119 0 156 -16 q 56 43 82 15 q 16 105 31 70 q 2 179 2 141 q 22 269 2 228 q 78 341 42 311 q 167 388 115 370 q 283 408 219 406 q 262 512 283 475 q 202 550 240 550 q 151 532 177 550 q 99 473 125 515 l 23 571 m 287 291 q 217 280 245 289 q 170 255 188 270 q 145 221 153 240 q 137 179 137 201 q 143 150 137 164 q 158 126 148 137 q 179 108 167 115 q 205 101 191 101 q 268 132 250 101 q 287 225 287 163 l 287 291 m 560 416 l 560 423 q 556 474 560 451 q 542 514 552 497 q 520 540 533 531 q 490 550 507 550 q 456 538 470 550 q 431 509 441 527 q 416 465 421 490 q 411 412 411 440 l 560 416 "},"®":{"x_min":6.78125,"x_max":690.4375,"ha":695,"o":"m 588 130 q 477 52 539 79 q 343 25 415 25 q 211 53 272 25 q 104 129 149 81 q 32 242 59 177 q 6 379 6 306 q 33 516 6 452 q 107 629 61 581 q 216 705 153 677 q 348 733 278 733 q 479 705 417 733 q 588 629 541 677 q 662 516 635 581 q 690 379 690 452 q 588 130 690 235 m 349 655 q 254 634 299 655 q 176 575 209 612 q 124 487 143 537 q 105 379 105 436 q 124 272 105 322 q 176 185 143 223 q 254 127 209 148 q 349 105 299 105 q 444 127 400 105 q 522 187 489 149 q 575 275 556 225 q 594 380 594 324 q 575 486 594 436 q 523 574 556 536 q 445 633 490 611 q 349 655 400 655 m 206 190 l 206 580 l 336 580 q 416 572 383 580 q 470 548 448 563 q 500 511 491 533 q 510 462 510 489 q 491 400 510 428 q 438 356 472 372 l 519 200 l 417 184 l 340 341 l 302 341 l 302 190 l 206 190 m 340 419 q 388 429 373 419 q 402 459 402 440 q 387 486 402 476 q 336 495 371 495 l 302 495 l 302 419 l 340 419 "},"É":{"x_min":78,"x_max":641.59375,"ha":695,"o":"m 78 0 l 78 0 m 78 865 l 641 865 l 641 731 l 229 731 l 229 518 l 571 518 l 571 381 l 229 381 l 229 133 l 638 133 l 638 0 l 78 0 l 78 865 m 518 995 l 267 908 l 230 976 l 442 1133 l 518 995 "},"~":{"x_min":37.296875,"x_max":670.765625,"ha":695,"o":"m 37 526 q 85 588 58 560 q 140 635 111 615 q 197 666 168 655 q 250 677 225 677 q 288 673 271 677 q 321 660 305 668 q 353 640 337 652 q 387 615 368 629 q 423 589 406 600 q 457 577 441 577 q 483 583 471 577 q 507 600 495 588 q 534 629 520 611 q 567 673 548 647 l 670 590 q 628 532 651 559 q 578 484 604 505 q 522 452 551 463 q 463 440 493 440 q 402 452 430 440 q 355 479 375 464 q 328 500 341 489 q 303 519 315 511 q 277 533 290 528 q 248 539 264 539 q 203 518 227 539 q 149 450 178 497 l 37 526 "},"³":{"x_min":119.375,"x_max":565.640625,"ha":695,"o":"m 344 906 q 422 893 385 906 q 485 858 458 881 q 527 807 512 836 q 543 744 543 777 q 538 715 543 729 q 526 689 534 701 q 508 666 518 676 q 486 649 498 656 q 516 630 501 642 q 541 603 530 619 q 559 571 552 588 q 565 534 565 553 q 546 467 565 499 q 497 413 528 436 q 425 376 465 389 q 340 362 384 362 q 119 470 215 362 l 221 585 q 233 565 229 576 q 244 541 238 554 q 259 520 250 531 q 279 502 268 510 q 304 489 290 494 q 331 484 317 484 q 397 501 372 484 q 422 541 422 518 q 401 575 422 563 q 341 587 379 587 q 334 587 337 587 q 322 587 330 587 q 303 585 315 586 q 270 584 290 585 l 270 705 q 297 702 287 703 q 314 700 307 701 q 323 699 320 699 q 328 699 326 699 q 385 711 368 699 q 402 740 402 722 q 398 757 402 749 q 385 773 393 766 q 365 784 377 779 q 340 788 354 788 q 222 712 284 788 l 134 801 q 344 906 223 906 "},"¡":{"x_min":225.171875,"x_max":441.515625,"ha":695,"o":"m 409 760 q 331 730 377 730 q 290 738 309 730 q 256 760 271 746 q 233 793 242 775 q 225 832 225 811 q 233 871 225 853 q 256 902 242 889 q 290 924 271 916 q 331 931 309 931 q 373 924 353 931 q 408 902 393 916 q 432 870 423 888 q 441 832 441 852 q 433 795 441 812 q 409 760 425 777 m 335 -13 q 262 17 288 -13 q 237 105 237 48 q 239 141 237 120 q 243 184 240 162 q 248 227 246 206 q 251 265 250 248 l 270 642 l 396 642 l 421 265 q 423 229 421 249 q 427 189 425 210 q 430 150 429 169 q 432 119 432 132 q 405 17 432 48 q 335 -13 379 -13 "},"[":{"x_min":164.125,"x_max":594.796875,"ha":695,"o":"m 164 929 l 594 929 l 594 800 l 309 800 l 309 0 l 594 0 l 594 -124 l 164 -124 l 164 929 "},"L":{"x_min":84.78125,"x_max":637.53125,"ha":695,"o":"m 637 130 l 637 0 l 84 0 l 84 865 l 254 865 q 257 858 257 862 q 251 845 257 853 q 244 816 246 837 l 244 130 l 637 130 "}," ":{"x_min":0,"x_max":0,"ha":695},"%":{"x_min":18.3125,"x_max":678.90625,"ha":695,"o":"m 522 865 l 663 865 l 168 0 l 30 0 l 522 865 m 18 691 q 32 765 18 731 q 69 825 46 800 q 124 865 92 851 q 190 880 155 880 q 257 865 225 880 q 312 825 288 850 q 349 764 335 799 q 362 690 362 729 q 349 613 362 648 q 313 554 336 579 q 258 515 290 529 q 190 501 227 501 q 124 515 155 501 q 69 555 92 529 q 32 615 46 580 q 18 691 18 650 m 133 690 q 137 656 133 672 q 148 628 141 640 q 165 609 155 616 q 187 602 175 602 q 208 609 198 602 q 226 628 219 616 q 237 656 233 640 q 241 690 241 672 q 237 725 241 708 q 226 753 233 741 q 208 772 219 765 q 187 779 198 779 q 165 772 175 779 q 148 753 155 765 q 137 725 141 741 q 133 690 133 708 m 335 176 q 348 250 335 215 q 386 310 362 284 q 440 350 409 336 q 507 365 472 365 q 573 350 542 365 q 628 309 604 335 q 665 249 651 284 q 678 174 678 214 q 666 98 678 132 q 630 39 653 63 q 575 0 607 14 q 507 -13 543 -13 q 440 0 472 -13 q 386 40 409 14 q 348 100 362 65 q 335 176 335 134 m 450 174 q 454 140 450 156 q 465 112 458 124 q 482 94 472 101 q 503 87 492 87 q 525 94 515 87 q 542 112 535 101 q 554 140 550 124 q 558 174 558 156 q 554 209 558 193 q 542 237 550 225 q 525 256 535 249 q 503 263 515 263 q 482 256 492 263 q 465 237 472 249 q 454 209 458 225 q 450 174 450 193 "},"P":{"x_min":69.171875,"x_max":654.484375,"ha":695,"o":"m 69 865 l 362 865 q 495 844 440 865 q 585 788 550 824 q 637 705 621 752 q 654 605 654 658 q 638 506 654 552 q 587 425 621 459 q 498 370 552 390 q 369 349 444 349 l 227 349 l 227 0 l 69 0 l 69 865 m 227 727 l 227 482 l 358 482 q 419 491 394 482 q 462 516 445 500 q 486 554 478 532 q 494 601 494 575 q 486 651 494 628 q 461 691 478 674 q 419 718 444 708 q 359 727 394 727 l 227 727 "},"À":{"x_min":0,"x_max":695.859375,"ha":695,"o":"m 0 0 l 0 0 m 0 0 l 288 880 l 379 880 l 695 0 l 533 0 l 454 223 l 227 223 l 160 0 l 0 0 m 426 331 l 336 619 l 251 331 l 426 331 m 262 1133 l 475 976 l 437 908 l 188 995 l 262 1133 "},"_":{"x_min":40.015625,"x_max":654.484375,"ha":695,"o":"m 40 -10 l 654 -10 l 654 -140 l 40 -140 l 40 -10 "},"ñ":{"x_min":83.421875,"x_max":625.328125,"ha":695,"o":"m 83 0 l 83 0 m 83 0 l 83 648 l 240 648 l 240 581 q 318 640 274 618 q 409 662 363 662 q 498 647 458 662 q 566 600 538 632 q 610 517 594 568 q 625 393 625 465 l 625 0 l 472 0 l 472 392 q 465 456 472 429 q 446 500 458 483 q 417 526 434 518 q 379 534 400 534 q 324 522 349 534 q 280 490 299 511 q 250 439 261 469 q 240 375 240 410 l 240 0 l 83 0 m 114 825 q 289 963 199 963 q 343 949 319 963 q 387 916 367 935 q 398 904 391 911 q 411 891 404 897 q 426 881 418 885 q 441 877 433 877 q 461 884 452 877 q 480 902 471 891 q 498 927 489 913 q 517 956 507 942 l 593 870 q 552 821 571 843 q 517 784 534 799 q 483 761 500 769 q 448 754 466 754 q 399 765 421 754 q 357 792 377 776 q 343 807 351 798 q 326 824 335 815 q 306 839 317 833 q 286 845 296 845 q 249 823 265 845 q 210 755 233 800 l 114 825 "},"+":{"x_min":56.96875,"x_max":644.3125,"ha":695,"o":"m 287 734 l 422 734 l 422 511 l 644 511 l 644 393 l 422 393 l 422 149 l 287 149 l 287 393 l 56 393 l 56 511 l 287 511 l 287 734 "},"‚":{"x_min":206.859375,"x_max":448.984375,"ha":695,"o":"m 448 41 q 408 -81 448 -13 q 284 -234 367 -149 l 206 -164 q 242 -126 225 -145 q 271 -88 259 -107 q 290 -54 283 -70 q 297 -27 297 -38 q 290 -13 297 -20 q 276 0 284 -7 q 244 31 259 14 q 230 71 230 48 q 238 109 230 92 q 259 140 245 127 q 291 161 272 153 q 335 169 311 169 q 377 160 356 169 q 414 133 398 150 q 439 93 430 116 q 448 41 448 69 "},"ˋ":{"x_min":241.453125,"x_max":465.265625,"ha":695,"o":"m 465 763 l 387 718 l 241 914 l 354 991 l 465 763 "},"½":{"x_min":0,"x_max":693.140625,"ha":695,"o":"m 339 227 q 418 310 373 281 q 530 340 463 340 q 590 328 562 340 q 639 297 618 317 q 671 252 659 278 q 683 200 683 227 q 678 159 683 177 q 658 123 672 141 q 619 85 644 105 q 556 38 594 65 q 529 17 542 28 q 503 -4 515 6 l 655 -4 q 672 5 664 -2 q 693 12 679 12 l 693 -101 l 348 -101 l 348 -30 q 416 40 377 2 q 495 113 455 78 q 517 133 505 123 q 539 153 529 143 q 555 174 549 163 q 562 196 562 185 q 544 233 562 219 q 502 247 526 247 q 464 234 479 247 q 442 198 450 221 q 438 184 440 192 q 430 168 436 176 l 339 227 m 247 940 l 247 507 l 122 507 l 122 812 l 31 788 l 0 852 l 162 940 l 247 940 m 61 -6 l 491 926 l 612 864 l 183 -65 l 61 -6 "},"Æ":{"x_min":-2.71875,"x_max":689.078125,"ha":695,"o":"m 263 865 l 689 865 l 689 733 l 470 733 l 470 518 l 654 518 l 654 381 l 470 381 l 470 133 l 686 133 l 686 0 l 326 0 l 326 221 l 208 221 l 147 0 l -2 0 l 263 865 m 327 655 l 242 348 l 327 348 l 327 655 "},"Ë":{"x_min":78,"x_max":641.59375,"ha":695,"o":"m 78 0 l 78 0 m 78 865 l 641 865 l 641 731 l 229 731 l 229 518 l 571 518 l 571 381 l 229 381 l 229 133 l 638 133 l 638 0 l 78 0 l 78 865 m 214 1127 q 253 1120 235 1127 q 285 1099 271 1112 q 305 1070 298 1087 q 312 1037 312 1054 q 304 1003 312 1019 q 283 974 296 986 q 252 955 270 963 q 214 948 234 948 q 177 955 195 948 q 147 974 159 963 q 126 1003 134 986 q 119 1037 119 1019 q 126 1072 119 1056 q 147 1101 134 1088 q 177 1120 159 1113 q 214 1127 195 1127 m 470 1127 q 509 1120 492 1127 q 540 1099 527 1112 q 559 1070 552 1086 q 566 1037 566 1053 q 558 1003 566 1019 q 538 974 551 986 q 507 955 525 963 q 470 948 490 948 q 433 955 450 948 q 402 974 415 962 q 382 1002 389 986 q 374 1037 374 1018 q 382 1072 374 1056 q 402 1101 389 1089 q 433 1120 415 1113 q 470 1127 450 1127 "},"'":{"x_min":248.90625,"x_max":463.90625,"ha":695,"o":"m 287 844 q 294 888 287 869 q 313 918 301 906 q 341 937 325 931 q 375 943 357 943 q 408 937 392 943 q 436 917 424 931 q 456 884 448 904 q 463 837 463 864 q 419 668 463 790 l 380 560 l 248 591 l 284 704 q 293 735 290 720 q 297 763 297 750 l 287 844 "},"ª":{"x_min":95.625,"x_max":602.9375,"ha":695,"o":"m 304 668 q 371 671 343 671 q 421 672 399 672 q 402 734 421 714 q 349 754 384 754 q 287 737 316 754 q 226 685 257 720 l 149 775 q 246 844 196 822 q 358 865 297 865 q 506 818 453 865 q 559 678 559 771 l 559 362 l 422 362 l 422 397 q 398 377 412 386 q 367 361 383 368 q 334 352 351 355 q 302 348 317 348 q 230 360 263 348 q 173 392 198 371 q 136 442 149 413 q 123 505 123 470 q 170 614 123 573 q 304 668 217 655 m 425 571 q 348 567 379 571 q 299 556 317 564 q 272 537 280 549 q 265 507 265 524 q 268 489 265 498 q 280 474 272 480 q 299 462 288 467 q 324 458 310 458 q 359 463 341 458 q 391 480 377 467 q 415 515 406 493 q 425 571 425 537 m 95 307 l 602 307 l 602 198 l 95 198 l 95 307 "},"Œ":{"x_min":4.0625,"x_max":685,"ha":695,"o":"m 250 877 q 291 869 269 877 q 331 845 314 861 l 331 866 l 685 866 l 685 733 l 469 733 l 469 518 l 651 518 l 651 383 l 469 383 l 469 133 l 682 133 l 682 0 l 330 0 l 330 22 q 288 -1 311 7 q 245 -9 265 -9 q 146 16 190 -9 q 70 97 101 43 q 21 235 38 151 q 4 433 4 319 q 68 765 4 653 q 250 877 132 877 m 250 748 q 211 733 229 748 q 180 682 193 718 q 160 585 167 646 q 152 434 152 524 q 178 204 152 285 q 261 123 204 123 q 303 143 286 123 q 323 200 319 164 l 323 662 q 298 724 316 699 q 250 748 280 748 "},"ð":{"x_min":51.546875,"x_max":653.125,"ha":695,"o":"m 320 950 q 377 911 349 931 q 429 869 404 891 l 588 910 l 628 807 l 516 777 q 617 584 582 691 q 653 348 653 477 q 634 197 653 265 q 578 80 615 129 q 484 4 540 31 q 354 -22 428 -22 q 233 3 288 -22 q 137 72 178 28 q 74 178 96 117 q 51 309 51 238 q 72 441 51 379 q 130 551 92 503 q 220 626 168 598 q 336 654 273 654 q 370 650 352 654 q 406 640 389 647 q 441 624 424 634 q 470 602 457 615 q 438 664 457 631 q 385 737 419 698 l 213 689 l 172 798 l 287 828 q 226 870 259 849 q 153 912 193 891 l 320 950 m 358 108 q 412 121 387 108 q 455 161 437 134 q 484 227 474 187 q 494 322 494 267 q 482 415 494 377 q 452 478 471 453 q 407 513 432 502 q 355 524 382 524 q 299 511 325 524 q 254 472 273 498 q 224 408 235 446 q 213 322 213 370 q 223 236 213 276 q 252 168 233 197 q 298 124 271 140 q 358 108 324 108 "},"T":{"x_min":27.8125,"x_max":665.34375,"ha":695,"o":"m 27 865 l 665 865 l 665 730 l 421 730 l 421 0 l 262 0 l 262 730 l 27 730 l 27 865 "},"Þ":{"x_min":69.171875,"x_max":654.484375,"ha":695,"o":"m 69 865 l 238 865 q 241 858 241 862 q 239 852 241 855 q 236 845 238 849 q 231 833 233 840 q 229 816 229 826 l 229 716 l 362 716 q 495 696 440 716 q 585 639 550 675 q 637 557 621 604 q 654 457 654 510 q 638 357 654 404 q 587 276 621 311 q 498 221 552 242 q 369 201 444 201 l 227 201 l 227 0 l 69 0 l 69 865 m 227 333 l 358 333 q 419 342 394 333 q 462 367 445 352 q 486 405 478 383 q 494 453 494 427 q 486 500 494 477 q 461 540 478 522 q 419 568 444 558 q 359 579 394 579 l 229 579 l 227 333 "},"j":{"x_min":40.015625,"x_max":540.546875,"ha":695,"o":"m 137 648 l 519 648 l 519 31 q 498 -93 519 -41 q 442 -180 478 -146 q 358 -229 406 -213 q 255 -245 310 -245 q 137 -218 189 -245 q 40 -137 84 -190 l 136 -10 q 145 -16 143 -13 q 149 -25 147 -20 q 153 -38 151 -31 q 162 -55 155 -45 q 179 -75 169 -65 q 202 -94 189 -85 q 229 -108 215 -103 q 259 -113 244 -113 q 299 -106 280 -113 q 332 -81 318 -98 q 354 -37 346 -64 q 362 26 362 -11 l 362 522 l 137 522 l 137 648 m 441 944 q 479 937 461 944 q 510 917 497 930 q 532 888 524 905 q 540 852 540 871 q 532 817 540 834 q 510 788 524 800 q 479 768 497 775 q 441 760 461 760 q 403 768 421 760 q 372 788 385 775 q 350 817 358 800 q 343 852 343 834 q 349 886 343 869 q 368 915 356 902 q 399 936 381 929 q 441 944 417 944 "},"1":{"x_min":104.453125,"x_max":442.875,"ha":695,"o":"m 442 865 l 442 0 l 290 0 l 290 689 l 141 644 l 104 739 l 339 865 l 442 865 "},"›":{"x_min":173.625,"x_max":499.84375,"ha":695,"o":"m 499 309 l 267 59 l 173 153 l 339 331 l 180 483 l 271 577 l 499 356 l 499 309 "},"ı":{"x_min":123.4375,"x_max":576.484375,"ha":695,"o":"m 130 648 l 434 648 l 434 124 l 576 124 l 576 0 l 123 0 l 123 124 l 279 124 l 279 523 l 130 523 l 130 648 "},"ä":{"x_min":55.609375,"x_max":613.796875,"ha":695,"o":"m 55 0 l 55 0 m 104 556 q 349 662 204 662 q 460 647 411 662 q 543 598 509 631 q 595 515 577 565 q 613 394 613 464 l 613 0 l 465 0 l 465 58 q 378 3 428 23 q 276 -16 327 -16 q 178 -1 219 -16 q 109 39 136 13 q 68 99 82 65 q 55 172 55 134 q 76 264 55 222 q 139 336 98 305 q 241 383 181 366 q 381 400 302 400 l 463 400 q 434 507 462 474 q 344 540 405 540 q 183 454 265 540 l 104 556 m 411 283 q 310 276 349 284 q 248 252 271 267 q 218 218 226 238 q 209 180 209 199 q 217 149 209 164 q 237 125 224 135 q 267 108 250 114 q 304 101 284 101 q 361 112 336 101 q 406 139 387 124 q 438 172 425 155 q 457 201 451 189 q 465 231 462 211 q 467 282 467 251 l 411 283 m 238 940 q 273 933 256 940 q 304 915 291 927 q 326 886 318 903 q 335 849 335 870 q 327 815 335 831 q 306 787 319 799 q 275 768 293 775 q 238 760 257 760 q 200 768 218 760 q 169 787 183 775 q 149 815 156 799 q 141 849 141 831 q 149 884 141 868 q 169 913 156 900 q 200 932 183 925 q 238 940 218 940 m 493 940 q 528 933 510 940 q 558 915 545 927 q 580 886 572 903 q 589 849 589 870 q 581 815 589 831 q 561 787 574 799 q 530 768 548 775 q 493 760 512 760 q 456 767 473 760 q 425 786 438 774 q 404 815 412 798 q 397 849 397 831 q 404 885 397 868 q 425 913 412 901 q 456 932 438 925 q 493 940 473 940 "},"<":{"x_min":44.765625,"x_max":651.765625,"ha":695,"o":"m 647 670 l 213 448 l 651 202 l 651 54 l 44 409 l 44 490 l 647 808 l 647 670 "},"£":{"x_min":38.65625,"x_max":666.6875,"ha":695,"o":"m 508 662 q 479 685 488 670 q 461 713 470 699 q 439 738 453 727 q 396 748 425 748 q 355 740 375 748 q 321 714 336 731 q 297 671 306 697 q 288 611 288 645 q 289 585 288 599 q 294 551 290 572 l 433 551 l 433 427 l 323 427 q 331 368 328 399 q 333 315 333 337 q 331 275 333 296 q 325 233 330 254 q 313 193 321 212 q 293 160 305 174 q 308 161 299 161 q 328 161 318 161 q 374 154 349 161 q 422 139 398 147 q 467 123 446 130 q 503 116 489 116 q 525 120 514 116 q 549 130 537 123 q 576 148 561 137 q 608 173 590 159 l 666 54 q 495 -19 576 -19 q 441 -10 472 -19 q 376 9 409 -1 q 311 29 342 20 q 258 38 280 38 q 194 22 235 38 q 94 -23 153 6 l 38 99 q 83 119 65 109 q 114 136 102 128 q 134 151 127 144 q 145 166 141 159 q 174 235 164 198 q 184 314 184 273 q 183 337 184 324 q 181 365 183 350 q 178 397 180 381 q 172 427 175 413 l 82 427 l 82 551 l 144 551 q 140 582 141 568 q 139 609 139 596 q 159 715 139 667 q 213 799 179 764 q 295 853 248 834 q 396 873 341 873 q 507 849 457 873 q 601 777 556 826 l 508 662 "},"¹":{"x_min":128.859375,"x_max":425.25,"ha":695,"o":"m 425 901 l 425 365 l 279 365 l 279 739 l 169 711 l 128 791 l 326 901 l 425 901 "},"t":{"x_min":78,"x_max":632.109375,"ha":695,"o":"m 236 800 l 408 829 q 402 800 408 811 q 393 773 397 788 l 379 648 l 575 648 l 575 522 l 373 522 q 367 418 371 472 q 362 312 362 364 q 365 221 362 259 q 375 160 367 183 q 397 125 383 136 q 436 113 412 113 q 497 133 459 113 q 583 190 535 153 l 632 62 q 520 0 575 21 q 412 -22 465 -22 q 319 -7 358 -22 q 254 40 280 8 q 217 122 229 72 q 205 242 205 172 q 208 358 205 289 q 218 522 210 427 l 78 522 l 78 648 l 226 648 l 236 800 "},"¬":{"x_min":112.578125,"x_max":588.703125,"ha":695,"o":"m 112 508 l 588 508 l 588 213 l 442 213 l 442 376 l 112 376 l 112 508 "},"ù":{"x_min":70.53125,"x_max":625.328125,"ha":695,"o":"m 70 0 l 70 0 m 612 648 l 612 78 q 616 40 612 60 q 625 0 619 21 l 474 0 q 463 18 466 6 q 461 40 461 30 l 461 61 q 426 23 446 40 q 382 -4 406 7 q 334 -21 358 -15 q 286 -27 309 -27 q 195 -12 235 -27 q 127 34 155 2 q 85 118 99 67 q 70 242 70 170 l 70 648 l 223 648 l 223 242 q 249 133 223 168 q 316 99 274 99 q 371 111 345 99 q 415 144 396 123 q 444 194 434 165 q 455 259 455 224 l 455 648 l 612 648 m 465 763 l 387 718 l 241 914 l 354 991 l 465 763 "},"W":{"x_min":8.140625,"x_max":693.140625,"ha":695,"o":"m 8 865 l 160 865 l 209 294 l 311 794 l 411 794 l 512 298 l 548 865 l 693 865 l 590 0 l 467 0 l 354 526 l 238 0 l 113 0 l 8 865 "},"ï":{"x_min":114.625,"x_max":576.484375,"ha":695,"o":"m 114 0 l 114 0 m 130 648 l 434 648 l 434 124 l 576 124 l 576 0 l 123 0 l 123 124 l 279 124 l 279 523 l 130 523 l 130 648 m 211 940 q 246 933 229 940 q 277 915 264 927 q 299 886 291 903 q 308 849 308 870 q 300 815 308 831 q 279 787 292 799 q 248 768 266 775 q 211 760 230 760 q 173 768 191 760 q 142 787 156 775 q 122 815 129 799 q 114 849 114 831 q 122 884 114 868 q 142 913 129 900 q 173 932 156 925 q 211 940 191 940 m 466 940 q 501 933 483 940 q 531 915 518 927 q 553 886 545 903 q 562 849 562 870 q 554 815 562 831 q 534 787 547 799 q 503 768 521 775 q 466 760 485 760 q 429 767 446 760 q 398 786 411 774 q 377 815 385 798 q 370 849 370 831 q 377 885 370 868 q 398 913 385 901 q 429 932 411 925 q 466 940 446 940 "},">":{"x_min":51.546875,"x_max":658.546875,"ha":695,"o":"m 52 670 l 52 808 l 658 490 l 658 409 l 51 54 l 51 202 l 487 448 l 52 670 "},"v":{"x_min":34.59375,"x_max":649.734375,"ha":695,"o":"m 34 648 l 222 648 q 220 635 222 640 q 217 626 219 630 q 213 616 215 621 q 212 604 212 611 l 359 189 l 422 372 q 467 516 446 443 q 501 648 489 589 l 649 648 q 609 502 633 578 q 552 351 585 427 l 408 0 l 280 0 l 34 648 "},"û":{"x_min":70.53125,"x_max":625.328125,"ha":695,"o":"m 70 0 l 70 0 m 612 648 l 612 78 q 616 40 612 60 q 625 0 619 21 l 474 0 q 463 18 466 6 q 461 40 461 30 l 461 61 q 426 23 446 40 q 382 -4 406 7 q 334 -21 358 -15 q 286 -27 309 -27 q 195 -12 235 -27 q 127 34 155 2 q 85 118 99 67 q 70 242 70 170 l 70 648 l 223 648 l 223 242 q 249 133 223 168 q 316 99 274 99 q 371 111 345 99 q 415 144 396 123 q 444 194 434 165 q 455 259 455 224 l 455 648 l 612 648 m 172 766 l 331 967 l 376 967 l 536 765 l 455 705 l 349 828 l 238 706 l 172 766 "},"Ò":{"x_min":23.734375,"x_max":670.765625,"ha":695,"o":"m 23 0 l 23 0 m 348 -25 q 211 9 271 -25 q 109 104 151 43 q 45 250 67 166 q 23 434 23 335 q 46 618 23 535 q 111 761 69 701 q 214 854 153 821 q 349 887 274 887 q 473 859 415 887 q 575 775 531 832 q 644 634 619 719 q 670 433 670 548 q 657 283 670 349 q 622 166 644 217 q 569 79 600 115 q 503 19 539 42 q 427 -14 467 -3 q 348 -25 388 -25 m 184 442 q 196 302 184 363 q 230 200 208 241 q 283 137 252 158 q 349 116 313 116 q 409 132 381 116 q 460 185 438 147 q 495 283 482 222 q 508 436 508 345 q 494 582 508 522 q 457 679 480 642 q 407 732 435 716 q 351 748 379 748 q 287 733 318 748 q 234 683 257 718 q 198 589 211 648 q 184 442 184 531 m 262 1133 l 475 976 l 437 908 l 188 995 l 262 1133 "},"&":{"x_min":41.375,"x_max":682.296875,"ha":695,"o":"m 540 360 q 541 377 541 368 q 542 394 541 386 q 546 410 543 402 q 556 423 549 417 l 682 336 q 630 251 655 291 q 583 179 604 210 q 605 149 593 164 q 630 117 617 133 q 654 86 642 101 q 676 56 666 70 l 559 -29 l 491 78 q 445 38 470 56 q 392 6 420 20 q 335 -14 364 -6 q 275 -22 305 -22 q 173 -4 217 -22 q 100 43 130 12 q 56 115 71 73 q 41 206 41 158 q 54 286 41 246 q 90 362 67 326 q 145 428 113 398 q 213 479 177 458 q 141 585 165 532 q 116 685 116 638 q 132 761 116 725 q 177 823 149 796 q 242 864 204 849 q 322 878 280 878 q 404 862 367 878 q 467 818 441 845 q 509 756 494 791 q 523 685 523 721 q 513 619 523 652 q 485 555 503 585 q 442 498 467 524 q 385 455 417 472 l 503 286 q 525 322 516 303 q 540 360 535 342 m 258 683 q 272 623 258 657 q 319 548 286 590 q 348 573 336 558 q 369 605 361 588 q 381 641 377 623 q 385 677 385 659 q 381 710 385 695 q 369 738 377 726 q 349 756 361 750 q 323 763 338 763 q 274 740 290 763 q 258 683 258 718 m 275 381 q 237 348 252 367 q 211 308 221 330 q 197 265 202 287 q 193 222 193 243 q 200 177 193 199 q 221 138 208 155 q 253 110 235 120 q 294 99 272 99 q 363 122 333 99 q 416 179 394 145 l 275 381 "},"Ð":{"x_min":6.78125,"x_max":661.265625,"ha":695,"o":"m 61 393 l 6 393 l 6 520 l 61 520 l 61 865 l 284 865 q 386 857 342 865 q 464 833 430 849 q 524 796 498 818 q 572 744 550 773 q 638 605 616 685 q 661 426 661 525 q 639 249 661 328 q 569 114 617 170 q 446 29 521 59 q 267 0 372 0 l 61 0 l 61 393 m 212 735 l 212 520 l 343 520 l 343 393 l 212 393 l 212 122 l 265 122 q 446 199 387 122 q 505 422 505 277 q 492 553 505 495 q 452 652 480 611 q 382 714 425 693 q 279 735 339 735 l 212 735 "},"I":{"x_min":101.734375,"x_max":600.234375,"ha":695,"o":"m 109 865 l 592 865 l 592 735 l 425 735 l 425 127 l 600 127 l 600 0 l 101 0 l 101 128 l 269 128 l 269 735 l 109 735 l 109 865 "},"G":{"x_min":22.375,"x_max":648.375,"ha":695,"o":"m 551 619 q 531 629 539 624 q 520 640 524 634 q 513 651 516 645 q 508 662 511 656 q 486 698 500 681 q 455 727 472 714 q 416 748 437 740 q 372 755 395 755 q 303 738 337 755 q 243 685 269 722 q 199 588 216 647 q 183 442 183 529 q 197 301 183 364 q 237 196 211 239 q 298 130 263 153 q 375 107 333 107 q 438 114 406 107 q 498 143 471 122 l 498 305 l 351 305 l 351 437 l 645 437 l 645 73 q 517 -1 583 21 q 375 -25 451 -25 q 224 8 290 -25 q 113 102 158 42 q 45 247 69 163 q 22 433 22 331 q 39 593 22 524 q 85 713 56 662 q 150 797 113 763 q 226 850 187 830 q 304 879 265 870 q 375 887 343 887 q 459 875 419 887 q 535 840 499 863 q 598 787 570 818 q 648 718 627 756 l 551 619 "},"`":{"x_min":165.484375,"x_max":448.984375,"ha":695,"o":"m 165 904 l 287 961 l 331 848 q 363 792 346 813 q 400 752 381 771 q 435 713 421 731 q 448 666 448 694 q 440 633 448 647 q 419 610 432 619 q 394 598 407 602 q 368 594 380 594 q 335 598 352 594 q 298 622 318 602 q 256 682 278 641 q 205 796 233 722 l 165 904 "},"·":{"x_min":223.8125,"x_max":440.171875,"ha":695,"o":"m 330 560 q 371 552 351 560 q 406 530 391 543 q 431 499 421 516 q 440 462 440 481 q 431 424 440 442 q 408 393 423 406 q 373 372 393 379 q 330 364 353 364 q 288 371 307 364 q 254 392 269 379 q 231 423 240 405 q 223 462 223 441 q 232 500 223 482 q 256 532 241 518 q 290 553 271 545 q 330 560 309 560 "},"r":{"x_min":123.4375,"x_max":651.765625,"ha":695,"o":"m 123 648 l 283 648 l 283 577 q 318 611 299 595 q 360 638 338 626 q 407 656 383 649 q 458 662 432 662 q 563 645 513 662 q 651 591 613 628 l 579 440 q 514 508 545 486 q 451 530 482 530 q 384 515 415 530 q 330 473 354 499 q 294 412 307 447 q 280 339 280 377 l 280 0 l 123 0 l 123 648 "},"¿":{"x_min":76.640625,"x_max":617.859375,"ha":695,"o":"m 258 772 q 234 806 242 790 q 226 840 226 822 q 234 875 226 859 q 256 905 242 892 q 289 925 270 918 q 328 933 307 933 q 368 925 349 933 q 402 905 387 918 q 424 875 416 892 q 433 840 433 859 q 424 803 433 820 q 402 773 416 786 q 368 752 387 760 q 328 744 349 744 q 292 751 310 744 q 258 772 274 758 m 617 139 q 562 72 593 101 q 495 22 531 42 q 418 -9 459 1 q 335 -21 378 -21 q 226 -1 274 -21 q 145 53 179 18 q 94 133 112 88 q 76 230 76 179 q 89 310 76 276 q 122 371 102 345 q 168 418 143 398 q 218 458 193 439 q 243 483 233 470 q 256 511 252 496 q 262 542 261 526 q 263 579 263 559 l 263 654 l 401 654 l 401 579 q 399 525 401 550 q 388 478 397 501 q 360 428 379 454 q 307 368 341 402 q 248 291 265 326 q 231 223 231 257 q 240 176 231 198 q 262 138 248 154 q 297 112 277 122 q 340 103 316 103 q 389 112 365 103 q 434 139 413 122 q 476 182 456 157 q 514 237 496 206 l 617 139 "},"ý":{"x_min":15.59375,"x_max":658.546875,"ha":695,"o":"m 15 0 l 15 0 m 400 -70 q 359 -150 382 -117 q 309 -204 336 -183 q 251 -235 282 -225 q 187 -245 220 -245 q 15 -172 91 -245 l 92 -38 q 104 -47 101 -42 q 109 -58 107 -52 q 113 -71 111 -64 q 120 -86 115 -78 q 144 -111 130 -103 q 179 -119 158 -119 q 207 -113 193 -119 q 234 -92 221 -107 q 260 -52 247 -77 q 286 8 273 -28 l 42 648 l 233 648 q 231 635 233 640 q 228 626 230 630 q 225 616 226 621 q 223 604 223 611 l 368 201 l 430 372 q 455 443 443 406 q 477 516 467 480 q 495 585 487 552 q 510 648 503 619 l 658 648 q 616 503 641 578 q 560 351 591 428 l 400 -70 m 387 991 l 499 914 l 354 718 l 276 763 l 387 991 "},"x":{"x_min":34.59375,"x_max":665.34375,"ha":695,"o":"m 470 648 l 638 648 l 432 333 q 578 123 518 210 q 665 0 638 36 l 487 0 l 345 219 l 212 0 l 34 0 l 258 328 q 37 648 61 613 l 212 648 l 344 438 l 470 648 "},"è":{"x_min":51.546875,"x_max":634.8125,"ha":695,"o":"m 51 0 l 51 0 m 358 662 q 465 642 415 662 q 553 582 516 621 q 613 483 591 542 q 634 345 634 423 q 633 312 634 328 q 630 280 632 296 l 205 280 q 227 200 210 233 q 266 144 243 166 q 317 112 289 122 q 375 101 345 101 q 461 121 419 101 q 534 180 503 141 l 620 94 q 375 -22 522 -22 q 245 0 305 -22 q 143 67 186 23 q 75 173 100 110 q 51 315 51 236 q 74 460 51 396 q 138 569 97 524 q 235 638 179 614 q 358 662 291 662 m 479 394 q 470 452 479 425 q 444 500 461 480 q 403 533 427 521 q 349 545 379 545 q 297 535 321 545 q 255 504 273 524 q 226 457 237 484 q 210 394 215 429 l 479 394 m 465 763 l 387 718 l 241 914 l 354 991 l 465 763 "},"º":{"x_min":92.921875,"x_max":602.9375,"ha":695,"o":"m 118 620 q 136 729 118 680 q 186 813 155 778 q 259 868 218 849 q 345 887 301 887 q 432 870 392 887 q 502 821 472 853 q 549 740 532 788 q 567 630 567 692 q 548 519 567 568 q 498 437 529 471 q 426 385 467 403 q 340 368 385 368 q 253 386 293 368 q 182 438 212 404 q 135 517 152 471 q 118 620 118 564 m 343 763 q 310 754 325 763 q 283 727 295 745 q 265 684 271 710 q 258 626 258 659 q 265 570 258 594 q 283 528 271 545 q 309 503 295 512 q 341 494 324 494 q 374 502 358 494 q 401 527 389 511 q 419 569 413 544 q 426 625 426 593 q 419 683 426 657 q 401 727 413 709 q 374 754 389 745 q 343 763 359 763 m 92 327 l 602 327 l 602 208 l 92 208 l 92 327 "},"Ø":{"x_min":23.734375,"x_max":674.828125,"ha":695,"o":"m 348 -25 q 273 -15 308 -25 q 206 10 238 -5 l 149 -95 l 27 -31 l 104 112 q 44 255 64 173 q 23 434 23 337 q 46 618 23 535 q 111 761 69 701 q 214 854 153 821 q 349 887 274 887 q 424 877 388 887 q 494 847 461 866 l 547 947 l 674 881 l 598 740 q 651 608 632 685 q 670 433 670 531 q 657 283 670 349 q 622 166 644 217 q 569 79 600 115 q 503 19 539 42 q 427 -14 467 -3 q 348 -25 388 -25 m 425 718 q 351 748 390 748 q 287 733 318 748 q 234 683 257 718 q 198 589 211 648 q 184 442 184 531 q 188 361 184 398 q 198 291 192 324 l 425 718 m 499 555 l 278 141 q 311 122 293 128 q 349 116 330 116 q 409 132 381 116 q 460 185 438 147 q 495 283 482 222 q 508 436 508 345 q 506 499 508 470 q 499 555 503 529 "},"÷":{"x_min":86.140625,"x_max":609.71875,"ha":695,"o":"m 86 516 l 609 516 l 609 379 l 86 379 l 86 516 m 354 726 q 391 717 375 726 q 419 696 407 709 q 436 669 430 684 q 442 641 442 654 q 435 610 442 625 q 416 584 428 595 q 388 566 404 573 q 354 559 372 559 q 319 566 335 559 q 291 584 303 573 q 272 610 279 595 q 265 641 265 625 q 272 674 265 658 q 292 701 280 689 q 320 719 304 712 q 354 726 336 726 m 354 331 q 392 323 375 331 q 420 302 408 315 q 437 275 431 290 q 442 248 442 261 q 435 216 442 231 q 416 190 428 201 q 388 173 404 179 q 354 166 372 166 q 320 173 336 166 q 291 190 303 179 q 271 216 278 201 q 263 248 263 231 q 271 282 263 267 q 291 308 279 297 q 320 325 304 319 q 354 331 337 331 "},"h":{"x_min":83.421875,"x_max":625.328125,"ha":695,"o":"m 83 0 l 83 937 l 259 937 q 257 924 259 929 q 250 915 254 919 q 244 908 247 912 q 240 897 240 904 l 240 581 q 318 640 274 618 q 409 662 363 662 q 499 647 459 662 q 566 600 539 632 q 610 517 594 568 q 625 393 625 465 l 625 0 l 472 0 l 472 392 q 465 456 472 429 q 446 500 458 483 q 417 526 434 518 q 379 534 400 534 q 324 522 349 534 q 280 490 299 511 q 250 439 261 469 q 240 375 240 410 l 240 0 l 83 0 "},".":{"x_min":231.953125,"x_max":438.8125,"ha":695,"o":"m 335 170 q 374 162 355 170 q 407 140 393 153 q 430 109 421 126 q 438 75 438 92 q 430 39 438 56 q 408 9 422 22 q 375 -10 394 -3 q 335 -18 356 -18 q 294 -10 313 -18 q 261 9 275 -3 q 239 38 247 21 q 231 75 231 55 q 240 112 231 94 q 262 142 248 129 q 295 163 276 155 q 335 170 314 170 "},";":{"x_min":196,"x_max":438.8125,"ha":695,"o":"m 438 41 q 398 -81 438 -13 q 275 -234 357 -149 l 196 -164 q 232 -126 215 -145 q 261 -88 249 -107 q 280 -54 274 -70 q 287 -27 287 -38 q 281 -13 287 -20 q 266 0 275 -7 q 235 31 248 14 q 221 71 221 48 q 228 109 221 92 q 249 140 236 127 q 281 161 263 153 q 323 169 300 169 q 366 160 345 169 q 403 133 387 150 q 429 93 419 116 q 438 41 438 69 m 323 604 q 361 597 342 604 q 394 578 379 590 q 418 548 409 565 q 427 510 427 531 q 419 473 427 490 q 396 443 411 456 q 363 422 382 430 q 323 415 344 415 q 284 422 303 415 q 251 443 265 430 q 229 473 238 456 q 221 510 221 490 q 229 546 221 529 q 251 576 238 563 q 284 596 265 589 q 323 604 303 604 "},"f":{"x_min":91.5625,"x_max":715.53125,"ha":695,"o":"m 499 948 q 715 843 629 948 l 651 718 q 637 725 640 718 q 629 747 633 731 q 608 773 621 759 q 579 798 596 786 q 542 817 562 809 q 498 825 521 825 q 411 781 440 825 q 383 647 383 738 l 383 613 l 581 613 l 581 490 l 383 490 l 383 0 l 231 0 l 231 490 l 91 490 l 91 613 l 231 613 l 231 659 q 253 786 231 731 q 311 876 274 840 q 396 930 347 912 q 499 948 444 948 "},"“":{"x_min":88.84375,"x_max":616.5,"ha":695,"o":"m 375 623 q 415 747 375 678 q 539 900 456 815 l 616 829 q 580 791 597 811 q 552 754 564 772 q 533 719 539 735 q 526 693 526 704 q 532 679 526 685 q 547 665 539 672 q 578 633 564 650 q 592 592 592 617 q 585 554 592 572 q 564 523 577 537 q 531 503 550 510 q 489 495 512 495 q 446 505 467 495 q 409 531 425 514 q 384 572 394 548 q 375 623 375 595 m 88 623 q 129 747 88 678 q 252 900 170 815 l 330 829 q 294 791 311 811 q 265 754 278 772 q 246 719 253 735 q 240 693 240 704 q 246 679 240 685 q 261 665 252 672 q 292 633 278 650 q 307 592 307 617 q 299 554 307 572 q 278 523 292 537 q 245 503 264 510 q 202 495 225 495 q 160 505 181 495 q 123 531 139 514 q 98 572 107 548 q 88 623 88 595 "},"A":{"x_min":0,"x_max":695.859375,"ha":695,"o":"m 0 0 l 288 880 l 379 880 l 695 0 l 533 0 l 454 223 l 227 223 l 160 0 l 0 0 m 426 331 l 336 619 l 251 331 l 426 331 "},"6":{"x_min":70.53125,"x_max":630.75,"ha":695,"o":"m 393 883 q 507 857 453 883 q 611 781 562 830 l 507 669 q 496 675 499 671 q 490 686 492 680 q 485 698 487 691 q 478 714 482 706 q 441 739 464 729 q 393 750 418 750 q 341 737 368 750 q 291 697 315 725 q 250 624 268 670 q 226 511 233 578 q 257 536 240 524 q 292 557 274 548 q 330 571 311 566 q 369 576 350 576 q 471 554 423 576 q 554 493 518 533 q 610 400 590 454 q 630 280 630 345 q 609 159 630 215 q 551 62 588 103 q 465 -2 514 21 q 359 -26 415 -26 q 237 5 290 -26 q 146 93 183 36 q 90 227 109 149 q 70 398 70 305 q 93 601 70 511 q 160 754 117 691 q 262 850 202 816 q 393 883 321 883 m 360 438 q 287 416 323 438 q 229 355 252 393 l 229 330 q 239 250 229 288 q 266 182 248 211 q 308 134 284 152 q 362 116 333 116 q 406 127 385 116 q 442 159 427 138 q 467 210 458 179 q 476 280 476 240 q 465 351 476 321 q 438 400 455 381 q 401 429 422 419 q 360 438 381 438 "},"‘":{"x_min":227.890625,"x_max":469.328125,"ha":695,"o":"m 227 623 q 268 747 227 678 q 392 900 309 815 l 469 829 q 433 791 449 811 q 404 754 417 772 q 385 719 392 735 q 379 693 379 704 q 385 679 379 685 q 400 665 391 672 q 431 633 417 650 q 445 592 445 617 q 438 554 445 572 q 417 523 430 537 q 384 503 403 510 q 341 495 364 495 q 299 505 320 495 q 262 531 278 514 q 237 572 246 548 q 227 623 227 595 "},"O":{"x_min":23.734375,"x_max":670.765625,"ha":695,"o":"m 348 -25 q 211 9 271 -25 q 109 104 151 43 q 45 250 67 166 q 23 434 23 335 q 46 618 23 535 q 111 761 69 701 q 214 854 153 821 q 349 887 274 887 q 473 859 415 887 q 575 775 531 832 q 644 634 619 719 q 670 433 670 548 q 657 283 670 349 q 622 166 644 217 q 569 79 600 115 q 503 19 539 42 q 427 -14 467 -3 q 348 -25 388 -25 m 184 442 q 196 302 184 363 q 230 200 208 241 q 283 137 252 158 q 349 116 313 116 q 409 132 381 116 q 460 185 438 147 q 495 283 482 222 q 508 436 508 345 q 494 582 508 522 q 457 679 480 642 q 407 732 435 716 q 351 748 379 748 q 287 733 318 748 q 234 683 257 718 q 198 589 211 648 q 184 442 184 531 "},"n":{"x_min":83.421875,"x_max":625.328125,"ha":695,"o":"m 83 0 l 83 648 l 240 648 l 240 581 q 318 640 274 618 q 409 662 363 662 q 498 647 458 662 q 566 600 538 632 q 610 517 594 568 q 625 393 625 465 l 625 0 l 472 0 l 472 392 q 465 456 472 429 q 446 500 458 483 q 417 526 434 518 q 379 534 400 534 q 324 522 349 534 q 280 490 299 511 q 250 439 261 469 q 240 375 240 410 l 240 0 l 83 0 "},"3":{"x_min":65.109375,"x_max":613.796875,"ha":695,"o":"m 594 644 q 583 581 594 610 q 555 528 573 552 q 515 488 537 505 q 470 461 493 471 q 522 432 497 451 q 569 383 548 412 q 601 319 589 355 q 613 240 613 282 q 594 131 613 180 q 536 47 574 82 q 442 -7 498 12 q 314 -26 386 -26 q 179 0 242 -26 q 65 90 115 27 l 174 223 q 183 215 181 219 q 188 205 186 211 q 192 192 190 200 q 200 173 195 184 q 221 147 208 159 q 250 127 233 135 q 284 113 266 118 q 320 108 303 108 q 374 118 349 108 q 417 146 398 127 q 447 191 436 164 q 458 254 458 219 q 445 309 458 285 q 411 351 433 334 q 358 377 388 368 q 291 385 327 385 q 283 385 288 385 q 271 384 279 385 q 249 384 263 384 q 215 383 236 383 l 215 508 q 320 518 277 508 q 388 545 362 527 q 426 588 415 562 q 437 645 437 613 q 429 686 437 667 q 408 720 422 706 q 373 742 394 734 q 326 751 352 751 q 256 733 293 751 q 181 668 220 714 l 92 768 q 199 857 139 830 q 330 885 259 885 q 436 867 387 885 q 520 817 484 849 q 575 741 555 785 q 594 644 594 697 "},"9":{"x_min":58.328125,"x_max":617.859375,"ha":695,"o":"m 295 -26 q 181 0 236 -26 q 78 76 126 27 l 181 189 q 192 182 189 187 q 199 172 196 178 q 203 159 201 166 q 210 144 206 152 q 247 118 224 128 q 295 108 270 108 q 347 120 320 108 q 396 160 373 132 q 437 233 419 187 q 462 345 455 278 q 432 320 448 332 q 396 299 415 308 q 358 285 377 290 q 319 280 338 280 q 217 302 265 280 q 134 363 170 324 q 78 457 99 402 q 58 576 58 511 q 79 697 58 641 q 137 795 101 754 q 223 859 174 836 q 328 883 272 883 q 451 851 397 883 q 541 763 504 819 q 598 629 579 707 q 617 458 617 550 q 594 255 617 345 q 528 102 571 165 q 426 6 486 40 q 295 -26 367 -26 m 327 417 q 401 440 365 417 q 459 501 436 463 l 459 526 q 450 606 459 567 q 422 675 440 645 q 380 722 404 704 q 326 740 356 740 q 281 729 302 740 q 245 698 261 718 q 221 646 230 677 q 212 576 212 615 q 222 505 212 535 q 249 456 233 475 q 286 427 265 436 q 327 417 307 417 "},"l":{"x_min":92.921875,"x_max":604.296875,"ha":695,"o":"m 101 937 l 426 937 l 426 120 l 604 120 l 604 0 l 92 0 l 92 120 l 270 120 l 270 816 l 101 816 l 101 937 "},"¤":{"x_min":71.890625,"x_max":622.609375,"ha":695,"o":"m 71 669 l 162 751 l 237 676 q 291 696 262 689 q 348 704 320 704 q 404 697 377 704 q 457 677 432 690 l 531 751 l 622 669 l 545 594 q 570 538 563 567 q 577 480 577 510 q 570 422 577 450 q 545 366 562 394 l 622 291 l 531 209 l 458 283 q 405 262 432 268 q 348 257 377 257 q 289 263 317 257 q 236 284 261 269 l 162 209 l 71 291 l 148 369 q 125 423 133 395 q 118 480 118 452 q 124 537 118 510 q 148 592 131 564 l 71 669 m 244 479 q 251 435 244 455 q 273 399 259 415 q 306 375 287 384 q 347 366 325 366 q 387 375 368 366 q 420 399 406 384 q 442 435 434 415 q 450 479 450 455 q 442 523 450 502 q 420 559 434 543 q 387 583 406 575 q 347 592 368 592 q 306 583 325 592 q 273 559 287 575 q 251 523 259 543 q 244 479 244 502 "},"4":{"x_min":59.6875,"x_max":661.953125,"ha":695,"o":"m 434 865 l 546 865 l 546 343 l 661 343 l 661 212 l 546 212 l 546 0 l 389 0 l 389 213 l 59 213 l 59 311 l 434 865 m 395 597 l 220 339 l 395 339 l 395 597 "},"p":{"x_min":75.28125,"x_max":655.84375,"ha":695,"o":"m 231 330 q 240 227 231 269 q 265 158 249 185 q 305 119 282 131 q 358 107 328 107 q 406 118 381 107 q 452 153 432 128 q 486 217 473 177 q 499 315 499 257 q 462 477 499 420 q 354 534 424 534 q 292 517 316 534 q 255 473 269 501 q 237 407 242 444 q 231 330 231 370 m 75 648 l 225 648 l 225 581 q 259 618 240 603 q 299 643 278 634 q 340 658 319 653 q 380 662 360 662 q 487 640 437 662 q 574 574 537 618 q 634 463 612 530 q 655 307 655 396 q 633 164 655 225 q 573 61 611 103 q 486 0 535 20 q 381 -21 436 -21 q 300 -3 341 -21 q 231 42 259 13 l 231 -231 l 76 -231 l 75 648 "},"à":{"x_min":55.609375,"x_max":613.796875,"ha":695,"o":"m 55 0 l 55 0 m 104 556 q 349 662 204 662 q 460 647 411 662 q 543 598 509 631 q 595 515 577 565 q 613 394 613 464 l 613 0 l 465 0 l 465 58 q 378 3 428 23 q 276 -16 327 -16 q 178 -1 219 -16 q 109 39 136 13 q 68 99 82 65 q 55 172 55 134 q 76 264 55 222 q 139 336 98 305 q 241 383 181 366 q 381 400 302 400 l 463 400 q 434 507 462 474 q 344 540 405 540 q 183 454 265 540 l 104 556 m 411 283 q 310 276 349 284 q 248 252 271 267 q 218 218 226 238 q 209 180 209 199 q 217 149 209 164 q 237 125 224 135 q 267 108 250 114 q 304 101 284 101 q 361 112 336 101 q 406 139 387 124 q 438 172 425 155 q 457 201 451 189 q 465 231 462 211 q 467 282 467 251 l 411 283 m 465 763 l 387 718 l 241 914 l 354 991 l 465 763 "},"Ü":{"x_min":51.546875,"x_max":642.953125,"ha":695,"o":"m 51 0 l 51 0 m 51 865 l 216 865 q 219 862 219 863 q 219 858 219 860 q 218 852 219 855 q 214 845 216 849 q 209 833 212 840 q 206 816 207 826 l 206 304 q 213 223 206 259 q 236 162 220 187 q 280 123 252 137 q 347 109 307 109 q 416 123 388 109 q 460 163 443 137 q 483 225 476 189 q 490 308 490 262 l 490 865 l 642 865 l 642 309 q 621 163 642 225 q 562 60 600 101 q 468 0 523 19 q 345 -19 413 -19 q 218 2 273 -19 q 126 67 163 25 q 70 169 88 109 q 51 305 51 229 l 51 865 m 226 1127 q 265 1120 247 1127 q 297 1099 283 1112 q 317 1070 310 1087 q 324 1037 324 1054 q 316 1003 324 1019 q 295 974 308 986 q 264 955 282 963 q 226 948 246 948 q 189 955 207 948 q 159 974 171 963 q 138 1003 146 986 q 131 1037 131 1019 q 138 1072 131 1056 q 159 1101 146 1088 q 189 1120 171 1113 q 226 1127 207 1127 m 482 1127 q 521 1120 504 1127 q 552 1099 539 1112 q 571 1070 564 1086 q 578 1037 578 1053 q 570 1003 578 1019 q 550 974 563 986 q 519 955 537 963 q 482 948 502 948 q 445 955 462 948 q 414 974 427 962 q 394 1002 401 986 q 386 1037 386 1018 q 394 1072 386 1056 q 414 1101 401 1089 q 445 1120 427 1113 q 482 1127 462 1127 "},"ó":{"x_min":40.015625,"x_max":654.484375,"ha":695,"o":"m 40 0 l 40 0 m 352 662 q 470 639 415 662 q 566 572 525 616 q 631 465 607 529 q 654 320 654 401 q 631 176 654 240 q 568 68 608 112 q 472 1 527 24 q 351 -22 416 -22 q 229 2 286 -22 q 130 73 172 27 q 64 181 88 118 q 40 318 40 243 q 64 455 40 392 q 132 564 89 518 q 231 636 174 610 q 352 662 288 662 m 499 318 q 488 411 499 370 q 457 480 477 452 q 408 523 436 508 q 348 537 381 537 q 287 523 315 537 q 241 480 260 508 q 210 413 221 453 q 200 323 200 373 q 210 232 200 273 q 240 164 221 192 q 288 120 260 135 q 351 104 316 104 q 459 159 419 104 q 499 318 499 214 m 387 991 l 499 914 l 354 718 l 276 763 l 387 991 "},"⁴":{"x_min":126.15625,"x_max":575.140625,"ha":695,"o":"m 396 910 l 495 910 l 495 598 l 575 598 l 575 487 l 495 487 l 495 364 l 358 364 l 358 489 l 126 489 l 126 567 l 396 910 m 366 701 l 279 591 l 366 591 l 366 701 "}}}
